<?xml version="1.0" encoding="UTF-8"?>
<svg width="113px" height="60px" viewBox="0 0 113 60" version="1.1" xmlns="http://www.w3.org/2000/svg" xmlns:xlink="http://www.w3.org/1999/xlink">
    <!-- Generator: Sketch 52.3 (67297) - http://www.bohemiancoding.com/sketch -->
    <title>footer/payments/Visa</title>
    <desc>Created with Sketch.</desc>
    <g id="footer/payments/Visa" stroke="none" stroke-width="1" fill="none" fill-rule="evenodd">
        <g id="footer/visa" transform="translate(19.000000, 18.000000)" fill="#FFFFFF">
            <path d="M29.0770793,0.431044444 L19.041941,24.6772944 L12.517328,24.6772944 L7.5884085,5.35213519 C7.30472968,4.16676296 7.02105085,3.73571852 6.13455453,3.23283333 C4.60978086,2.40666481 2.16305102,1.61641667 0,1.14945185 L0.141839411,0.431044444 L10.6734157,0.431044444 C12.0208901,0.431044444 13.2265251,1.3290537 13.5102039,2.90955 L16.134233,16.9184944 L22.5879262,0.431044444 L29.0770793,0.431044444 Z M54.7145529,16.774813 C54.7500127,10.380987 45.9914291,10.0217833 46.0268889,7.18407407 C46.0623488,6.32198519 46.8779254,5.38805556 48.650918,5.13661296 C49.5374144,5.02885185 51.9841442,4.92109074 54.7500127,6.21422407 L55.8492682,1.07761111 C54.3599543,0.538805556 52.4451223,0 50.0693122,0 C43.9702175,0 39.6441154,3.30467407 39.6086556,8.01024259 C39.5731957,11.4945185 42.6936628,13.4342185 45.0340131,14.6195907 C47.445283,15.804963 48.2608597,16.5592907 48.2608597,17.6369019 C48.2253998,19.2533185 46.3460276,19.9717259 44.573035,20.0076463 C41.4525679,20.0435667 39.6441154,19.1455574 38.2257213,18.4630704 L37.091006,23.7792852 C38.54486,24.4617722 41.204349,25.0364981 43.9702175,25.0724185 C50.4593705,25.0724185 54.679093,21.8036648 54.7145529,16.774813 L54.7145529,16.774813 Z M70.8842458,24.6772944 L76.5932821,24.6772944 L71.5934428,0.431044444 L66.3099247,0.431044444 C65.1042897,0.431044444 64.1114139,1.11353148 63.6858956,2.19114259 L54.3954142,24.6413741 L60.8845673,24.6413741 L62.161122,21.0134167 L70.104129,21.0134167 L70.8842458,24.6772944 Z M63.9695745,16.0923259 L67.2318809,7.00447222 L69.1112531,16.0923259 L63.9695745,16.0923259 Z M37.9065826,0.431044444 L32.8003638,24.6772944 L26.6303495,24.6772944 L31.7365683,0.431044444 L37.9065826,0.431044444 Z"></path>
        </g>
    </g>
</svg>