<?xml version="1.0" encoding="UTF-8"?>
<svg width="113px" height="60px" viewBox="0 0 113 60" version="1.1" xmlns="http://www.w3.org/2000/svg" xmlns:xlink="http://www.w3.org/1999/xlink">
    <!-- Generator: Sketch 52.3 (67297) - http://www.bohemiancoding.com/sketch -->
    <title>footer/payments/Neteller</title>
    <desc>Created with Sketch.</desc>
    <g id="footer/payments/Neteller" stroke="none" stroke-width="1" fill="none" fill-rule="evenodd">
        <g id="footer/logo_neteller" transform="translate(10.000000, 23.000000)" fill="#FFFFFF">
            <g id="Group-20">
                <g fill-rule="nonzero">
                    <path d="M86.5547073,1.58360295 C85.4311915,0.797684464 83.7307673,0.401713269 81.501838,0.401713269 L75.6642784,0.401713269 L73.4943781,12.4246196 L65.8477811,12.4246196 L66.3381141,9.69699656 L70.9451188,9.69699656 L71.4929066,6.63323969 L66.8882629,6.64167316 L67.3813507,3.92569628 L72.1256958,3.92569628 L72.7569109,0.402114862 L63.1194677,0.402114862 L61.0601482,11.807772 L57.5258942,11.807772 L59.6005614,0.402114862 L54.5622526,0.402114862 L52.5029328,11.807772 L49.0568287,11.807772 L51.1334637,0.402114862 L46.1006642,0.402114862 L43.9248608,12.4250212 L36.2239574,12.4250212 L36.7087809,9.69739815 L41.3370362,9.69739815 L41.8816756,6.65131141 L37.2608973,6.64689387 L37.7516239,3.92569628 L42.5487016,3.92569628 L43.1767684,0.402114862 L13.1523355,0.402114862 L11.4428601,9.92992078 L8.03846974,0.401713269 L2.81284265,0.401713269 L-7.87051298e-05,15.9506106 L4.99022006,15.9506106 L6.69261201,6.16016254 L9.99665336,15.9506106 L27.8835748,15.9506106 L30.0578039,3.92529468 L32.8561648,3.92529468 L30.6811486,15.9506106 L77.7456355,15.9506106 L79.1092021,8.35888699 L81.3184551,15.9506106 L86.3119019,15.9506106 L84.0239438,9.74759732 L84.5461523,9.63234 C85.6968213,9.38094245 86.5976015,8.83919282 87.2225202,8.02757234 C87.8490132,7.2083216 88.166982,6.1565482 88.166982,4.89313504 C88.1673753,3.42169643 87.6408381,2.33980353 86.5547073,1.58360295 Z M23.538658,12.424218 L15.8975705,12.424218 L16.3914452,9.69659496 L21.1838005,9.69659496 L21.7288335,6.62440465 L16.9817336,6.62440465 L17.4405846,3.92489309 L25.0682922,3.92489309 L23.538658,12.424218 Z M82.4380355,7.18703714 C81.9370774,7.54365216 81.2090548,7.71995171 80.2138286,7.71995171 L79.7817373,7.71995171 L79.2260791,7.71995171 L79.9832225,3.5469936 L80.36691,3.5469936 L80.7092774,3.5469936 C81.5356812,3.5469936 82.1393494,3.68273221 82.5556996,3.95822534 C82.8807518,4.17428265 83.2660133,4.60197974 83.2660133,5.41360022 C83.2660133,6.3914804 82.8177878,6.91756789 82.4380355,7.18703714 Z" id="Fill-1"></path>
                    <path d="M91.1213755,11.9285722 C90.5251842,11.9611012 89.9742483,12.2269561 89.5736392,12.6803552 C89.1734236,13.1333527 88.9687902,13.7196792 88.9994852,14.3301013 C89.0640234,15.5874906 90.1182787,16.5581421 91.351588,16.4950919 C92.5833233,16.4300338 93.536836,15.3533616 93.4726913,14.0955707 L93.4726913,14.0947675 C93.4105142,12.8361735 92.356259,11.8647188 91.1213755,11.9285722 M89.3792375,14.3084153 C89.3556259,13.8024075 89.5236614,13.3172825 89.8561906,12.9421942 C90.1887197,12.5663026 90.6459965,12.3442214 91.1426259,12.3185195 C92.164612,12.2643043 93.0398131,13.0703025 93.0925455,14.1148472 C93.0941196,14.1469747 93.0960872,14.1811101 93.0960872,14.2124344 C93.0960872,15.2148118 92.3224158,16.0541422 91.3311247,16.1071526 C90.307171,16.1601629 89.4331505,15.3533616 89.3792375,14.3084153" id="Fill-6"></path>
                    <path d="M90.5505564,15.3244671 L90.444545,13.2059943 L91.3655825,13.1586852 C91.5499945,13.1489451 91.690434,13.1607724 91.7889461,13.194167 C91.8877992,13.2268659 91.9672225,13.2901766 92.0299431,13.3837512 C92.0923227,13.4769779 92.1270917,13.5806405 92.1318639,13.6975217 C92.1400448,13.8477976 92.0981175,13.9765062 92.0077864,14.0850388 C91.9181368,14.1925278 91.7749704,14.2659264 91.5772643,14.3041911 C91.6512337,14.3368901 91.7088411,14.3681975 91.7477006,14.4005486 C91.832237,14.4715122 91.912342,14.5623039 91.9893791,14.6711844 L92.3766103,15.2295011 L92.0347152,15.2468942 L91.7374744,14.8204167 C91.6512337,14.6969261 91.5803322,14.6030036 91.5251109,14.5383015 C91.4702303,14.4735994 91.4208039,14.4294211 91.3788765,14.4043751 C91.337631,14.3793291 91.2929767,14.3629796 91.2510493,14.3539352 C91.2190072,14.3490652 91.1682174,14.3483695 91.0973159,14.3521959 L90.7803044,14.3685454 L90.8263221,15.3102048 L90.5505564,15.3244671 Z M90.7683739,14.1285214 L91.3574015,14.0972139 C91.4818201,14.0913003 91.5803322,14.0721679 91.6498701,14.041904 C91.7183856,14.0126837 91.7705391,13.9674618 91.8042854,13.9062383 C91.83735,13.8457105 91.8533711,13.7820519 91.8489396,13.7138712 C91.8438266,13.6129915 91.8042854,13.5329835 91.7299752,13.4710643 C91.655665,13.4101886 91.5411318,13.3851427 91.3873983,13.3924477 L90.7319005,13.4265381 L90.7683739,14.1285214 Z" id="Fill-4" transform="translate(91.410578, 14.239927) rotate(3.000000) translate(-91.410578, -14.239927) "></path>
                </g>
            </g>
        </g>
    </g>
</svg>