<?xml version="1.0" encoding="UTF-8"?>
<svg width="113px" height="60px" viewBox="0 0 113 60" version="1.1" xmlns="http://www.w3.org/2000/svg" xmlns:xlink="http://www.w3.org/1999/xlink">
    <!-- Generator: Sketch 52.3 (67297) - http://www.bohemiancoding.com/sketch -->
    <title>footer/payments/Skrill</title>
    <desc>Created with Sketch.</desc>
    <g id="footer/payments/Skrill" stroke="none" stroke-width="1" fill="none" fill-rule="evenodd">
        <g id="footer/logo_skrill" transform="translate(22.000000, 19.000000)" fill="#FFFFFF" fill-rule="nonzero">
            <path d="M48.2176759,5.44617243 C49.7394731,5.44617243 50.9729546,4.22722954 50.9729546,2.72381787 C50.9729546,1.22011354 49.7394731,0 48.2176759,0 C46.6976547,0 45.4647651,1.22011354 45.4647651,2.72381787 C45.4647651,4.22722954 46.6976547,5.44617243 48.2176759,5.44617243 Z M27.1155789,6.9159278 C26.99155,7.22498031 26.0967059,9.72403273 23.9325628,12.3141034 L23.9325628,1.23913666 L18.1662509,2.36618325 L18.1662509,22.439963 L23.9325628,22.439963 L23.9325628,16.2349144 C25.602662,18.7114318 26.4273511,22.439963 26.4273511,22.439963 L33.334197,22.439963 C32.6510015,19.6321508 29.6621693,14.4540579 29.6621693,14.4540579 C32.3446293,11.0919413 33.5224605,7.50974175 33.7101321,6.9159278 L27.1155789,6.9159278 Z M42.2752368,6.7066735 C37.110421,6.87056499 34.4886436,9.16153374 34.4886436,13.7156683 L34.4886436,22.439963 L40.1232302,22.439963 L40.1232302,15.3256094 C40.1232302,12.5982796 40.4843648,11.4293821 43.7573683,11.31817 L43.7573683,6.7865706 C43.2064901,6.67096857 42.2752368,6.7066735 42.2752368,6.7066735 Z M8.49554179,9.12641414 C7.78925737,9.080466 6.15379157,8.97627785 6.15379157,7.52086296 C6.15379157,5.76459016 8.5082703,5.76459016 9.39097781,5.76459016 C10.9438563,5.76459016 12.9546652,6.2179257 14.3906189,6.64258023 C14.3906189,6.64258023 15.1916272,6.92178107 15.8730466,7.20800583 L15.9366891,7.22498031 L15.9366891,7.16117971 L15.9366891,2.41505803 L15.8496616,2.38959631 C14.1549935,1.80339161 12.1844422,1.23913666 8.53106322,1.23913666 C2.2319298,1.23913666 0,4.86728429 0,7.97566183 C0,9.76734689 0.776439236,13.9840406 7.99084148,14.4704471 C8.60240209,14.5076153 10.2251394,14.5998043 10.2251394,16.1040939 C10.2251394,17.3458646 8.89663791,18.0781084 6.66174801,18.0781084 C4.21254547,18.0781084 1.83645788,17.4605886 0.393695839,16.8749692 L0.393695839,21.8288818 C2.55399075,22.3887469 4.98928073,22.6685331 7.84342755,22.6685331 C14.0025473,22.6685331 16.7610823,19.2355918 16.7610823,15.8333803 C16.7610823,11.9760773 13.6742701,9.46970826 8.49554179,9.12641414 Z M45.4242114,22.439963 L51.0135082,22.439963 L51.0135082,6.93348761 L45.4242114,6.93348761 L45.4242114,22.439963 Z M61.5373237,2.22775348 L61.5373237,22.439963 L67.1272125,22.439963 L67.1272125,1.23913666 L61.5373237,2.22775348 Z M53.3810116,2.22775348 L58.9655723,1.23913666 L58.9655723,22.439963 L53.3810116,22.439963 L53.3810116,2.22775348 Z"></path>
        </g>
    </g>
</svg>