<?xml version="1.0" encoding="UTF-8"?>
<svg width="113px" height="60px" viewBox="0 0 113 60" version="1.1" xmlns="http://www.w3.org/2000/svg" xmlns:xlink="http://www.w3.org/1999/xlink">
    <!-- Generator: Sketch 52.3 (67297) - http://www.bohemiancoding.com/sketch -->
    <title>footer/Paysafe(4export)</title>
    <desc>Created with Sketch.</desc>
    <g id="footer/Paysafe(4export)" stroke="none" stroke-width="1" fill="none" fill-rule="evenodd">
        <g id="footer/payments/Paysafe" transform="translate(8.000000, 23.000000)" fill="#FFFFFF">
            <path d="M17.6058145,7.35892406 C17.595437,7.02259189 17.4353838,6.8474768 17.1244575,6.83596128 L15.4676472,6.83596128 C15.0748981,6.85978648 14.8733348,7.07421311 14.8629573,7.4768587 L14.8629573,10.4426969 C14.8733348,10.8580493 15.0960523,11.0696964 15.5327062,11.0828002 L17.0514157,11.0828002 C17.2090741,11.0828002 17.3399905,11.0244285 17.4445639,10.9049055 C17.5535278,10.8155611 17.6058145,10.7012002 17.6058145,10.5594403 L17.6058145,7.35892406 Z M12.7347684,6.93840958 C12.7459441,6.1966522 12.9123835,5.63199535 13.2340865,5.24682156 C13.4025216,5.08481032 13.6144624,4.94940386 13.8711063,4.83782259 C14.1377286,4.71909374 14.3967674,4.6623104 14.6478234,4.6623104 L17.6892338,4.6623104 C19.0315255,4.67303174 19.7132485,5.4032736 19.7356001,6.85343308 L19.7356001,11.3174782 C19.7252225,11.8324993 19.522861,12.2796186 19.1301119,12.6532769 C18.7425516,13.0459953 18.2791556,13.2461268 17.7395248,13.2576423 L14.8629573,13.2576423 L14.8629573,16.4756304 L12.7347684,16.4756304 L12.7347684,6.93840958 Z" id="Fill-1" fill-rule="nonzero"></path>
            <path d="M23.5764384,10.6523188 C23.5764384,10.7762098 23.6335148,10.8750843 23.7468691,10.9477511 C23.8470519,11.0366985 23.9731787,11.0827605 24.1324337,11.0827605 L25.7672915,11.0827605 C26.1368907,11.0827605 26.3284758,10.9402065 26.3392523,10.6523188 L26.3392523,10.0447767 C26.3392523,9.71320954 26.1448735,9.54643325 25.7517252,9.54643325 L24.1324337,9.54643325 C23.9196946,9.54643325 23.772813,9.58177394 23.6905909,9.64769028 C23.6151545,9.72710756 23.5764384,9.88197126 23.5764384,10.1114872 L23.5764384,10.6523188 Z M26.3392523,7.30686602 C26.3500289,6.98165228 26.1600406,6.82599442 25.7664932,6.83671575 L21.4809785,6.83671575 L21.4809785,4.66227069 L26.3069224,4.66227069 C27.7118783,4.68450752 28.425532,5.36074564 28.4494802,6.69416173 L28.4494802,11.2431834 C28.4375062,11.8193557 28.2606893,12.2930798 27.9174329,12.670709 C27.5578122,13.061442 27.0948153,13.2579997 26.5268458,13.2579997 L23.6087683,13.2579997 C22.1902418,13.2460871 21.4702018,12.6016159 21.4478502,11.3190269 L21.4478502,9.56350796 C21.459026,8.22413559 22.1471351,7.5439266 23.5081863,7.52010143 L26.3392523,7.52010143 L26.3392523,7.30686602 Z" id="Fill-3" fill-rule="nonzero"></path>
            <path d="M34.4269293,14.3016222 C34.5961626,14.2905037 34.7410487,14.2301466 34.8603901,14.1221391 C34.9745429,14.0212792 35.031619,13.9053299 35.031619,13.7738943 L35.031619,13.5725715 L35.031619,13.2580791 L32.3071221,13.2580791 C31.9514926,13.2580791 31.6669091,13.2128113 31.4549683,13.1226727 C31.2318518,13.04127 31.007937,12.8891859 30.7844214,12.6731709 C30.570884,12.443655 30.418015,12.2042119 30.3254158,11.9532533 C30.2284259,11.7253257 30.178534,11.432673 30.178534,11.0828399 L30.178534,4.66155593 L32.3071221,4.66155593 L32.3071221,10.3931009 C32.3071221,10.853324 32.4955138,11.0828399 32.8770873,11.0828399 L34.3794321,11.0828399 C34.5578455,11.0828399 34.7135082,11.0244682 34.8432273,10.9049452 C34.9685558,10.8048794 35.031619,10.6853564 35.031619,10.5439937 L35.031619,10.3093156 L35.031619,4.66155593 L37.141448,4.66155593 L37.141448,14.1344488 C37.1298729,14.8349092 36.9490646,15.3963893 36.6002204,15.8220659 C36.2461875,16.2477425 35.7628349,16.4653459 35.1465701,16.4756701 L30.178534,16.4756701 L30.178534,14.3016222 L34.4269293,14.3016222 Z" id="Fill-5" fill-rule="evenodd"></path>
            <path d="M38.8125871,11.0828399 L42.6047709,11.0828399 C42.9516193,11.0705302 43.1320285,10.9327413 43.1420068,10.6674875 L43.1420068,10.4725181 C43.1420068,10.4153377 43.1252431,10.3529951 43.0925141,10.2850934 C43.0074983,10.1206996 42.9037232,10.039694 42.7799912,10.039694 L42.5528833,10.039694 L40.8996651,10.039694 C40.3424724,10.0277814 39.8655058,9.8371799 39.4655724,9.46749248 C39.0608492,9.12718944 38.853299,8.70746914 38.8421231,8.21508201 L38.8421231,6.59338122 C38.8636764,5.32786689 39.5541804,4.68379278 40.9160298,4.66235011 L45.3137016,4.66235011 L45.3137016,6.83600099 L41.5881733,6.83600099 C41.1499229,6.83600099 40.9299995,6.96981911 40.9299995,7.23586699 L40.9299995,7.44671986 C40.9299995,7.7222978 41.1555109,7.86088095 41.6037396,7.86088095 L43.4780787,7.86088095 C43.9773969,7.87199938 44.4028751,8.06220375 44.7577061,8.43308245 C45.1165287,8.80753491 45.3017274,9.25108041 45.3137016,9.7672927 L45.3137016,11.3536528 C45.3017274,11.7999779 45.0953745,12.2443176 44.6962394,12.6886573 C44.5014614,12.9058635 44.302692,13.0555651 44.1043217,13.1409387 C43.8979689,13.2187676 43.6189734,13.2576821 43.2617473,13.2576821 L38.8125871,13.2576821 L38.8125871,11.0828399 Z" id="Fill-7" fill-rule="evenodd"></path>
            <path d="M48.9552516,10.6523188 C48.9552516,10.7762098 49.0127271,10.8750843 49.1280771,10.9477511 C49.2266636,11.0366985 49.3543869,11.0827605 49.511247,11.0827605 L51.1484997,11.0827605 C51.5188972,11.0827605 51.7092846,10.9402065 51.7204604,10.6523188 L51.7204604,10.0447767 C51.7204604,9.71320954 51.5224892,9.54643325 51.1309378,9.54643325 L49.511247,9.54643325 C49.298508,9.54643325 49.1524244,9.58177394 49.0710009,9.64769028 C48.9955643,9.72710756 48.9552516,9.88197126 48.9552516,10.1114872 L48.9552516,10.6523188 Z M51.7204604,7.30686602 C51.7296406,6.98165228 51.538854,6.82599442 51.1461049,6.83592157 L46.8605899,6.83592157 L46.8605899,4.66227069 L51.6873322,4.66227069 C53.0922881,4.68371336 53.8051437,5.35995148 53.8274953,6.69416173 L53.8274953,11.2431834 C53.8163194,11.8193557 53.6375068,12.2930798 53.2962463,12.670709 C52.9390202,13.061442 52.4748259,13.2576026 51.9064575,13.2576026 L48.9879806,13.2576026 C47.5686559,13.2460871 46.848616,12.6016159 46.82826,11.3190269 L46.82826,9.56350796 C46.8378392,8.22413559 47.5247509,7.54313244 48.888596,7.52010143 L51.7204604,7.52010143 L51.7204604,7.30686602 Z" id="Fill-9" fill-rule="nonzero"></path>
            <path d="M55.5573872,3.42804677 C55.5709577,2.84115309 55.7880873,2.36981155 56.2151621,2.01600759 C56.6282669,1.65743858 57.1706916,1.4731905 57.8428354,1.46246917 L59.1943072,1.46246917 L59.1943072,3.56424742 L58.3756809,3.56424742 C57.9258556,3.57338039 57.6963529,3.78820414 57.6871727,4.20196816 L57.6871727,4.66219127 L59.1943072,4.66219127 L59.1943072,6.83901884 L57.6871727,6.83901884 L57.6871727,13.2591116 L55.5573872,13.2591116 L55.5573872,3.42804677 Z" id="Fill-11" fill-rule="evenodd"></path>
            <path d="M65.2467937,7.26600585 L65.2467937,7.21557588 C65.2467937,7.1035975 65.2016913,7.00869387 65.1094913,6.93840958 C65.0105056,6.86971363 64.8887694,6.83596128 64.7434841,6.83596128 L63.2618944,6.83596128 C63.072305,6.83596128 62.918638,6.88917086 62.8000949,6.99797254 C62.6528139,7.09803831 62.5777764,7.22987097 62.5777764,7.39347057 L62.5777764,8.26586936 L65.2467937,7.26600585 Z M62.612102,10.3410428 L62.612102,10.4756551 C62.612102,10.6507702 62.6572044,10.7881621 62.7498039,10.888625 C62.8168585,11.017281 62.906664,11.0828002 63.0264045,11.0828002 L63.2954217,11.0828002 L67.3981326,11.0828002 L67.3981326,13.2576423 L62.7498039,13.2576423 C62.3259223,13.2576423 61.9954381,13.2175366 61.7619442,13.1393106 C61.5060984,13.0555254 61.2773939,12.9185306 61.0770282,12.7287233 C60.8431349,12.4984132 60.6834808,12.2645293 60.6036536,12.0231008 C60.5158439,11.7721422 60.4723382,11.4377954 60.4723382,11.0224431 L60.4547763,6.66878792 C60.4783253,5.35324072 61.16843,4.68375307 62.526288,4.66151622 L65.3940745,4.66151622 C66.7200018,4.68375307 67.3917464,5.3770659 67.4129006,6.7422489 L67.4129006,8.46282422 L62.612102,10.3410428 Z" id="Fill-13" fill-rule="nonzero"></path>
            <path d="M71.9172212,13.2581189 C71.5947201,13.2581189 71.3009564,13.2283374 71.0339351,13.1747307 C70.7545403,13.1294629 70.475944,12.9996156 70.1909614,12.7820123 C69.8983953,12.5294653 69.6968322,12.2455486 69.5862717,11.9318503 C69.469724,11.6237113 69.4134462,11.2750694 69.4134462,10.8819539 L69.4134462,6.82293686 C69.4010728,6.49176681 69.4346001,6.20109958 69.5120325,5.94974388 C69.584276,5.69679985 69.7339516,5.45140046 69.9614586,5.21076612 C70.2200984,4.95663083 70.484725,4.78906038 70.7637205,4.70606932 C71.0323386,4.63935881 71.3348831,4.60520937 71.6741479,4.60520937 L74.9354818,4.60520937 L74.9354818,5.11387704 L71.7491854,5.11387704 C71.187203,5.11387704 70.7449612,5.22903208 70.4216616,5.4593422 C70.0903794,5.71069787 69.9223435,6.14352203 69.9223435,6.75304966 L69.9223435,10.8148463 C69.9223435,11.1007485 69.9658492,11.3779148 70.0528606,11.6463452 C70.1430652,11.9108047 70.2915436,12.1411148 70.5054801,12.3436289 C70.7369784,12.5195382 70.9680777,12.6279427 71.1931901,12.6732106 C71.4282806,12.7236406 71.6797359,12.7482599 71.9463582,12.7482599 L74.9865711,12.7482599 L74.9865711,13.2581189 L71.9172212,13.2581189 Z" id="Fill-15" fill-rule="evenodd"></path>
            <path d="M83.3241465,7.99164151 L79.0478118,7.99164151 C78.5357213,8.00315701 78.1353888,8.16080031 77.8456165,8.46417431 C77.5470634,8.77151916 77.3989843,9.19481326 77.3989843,9.73127698 L77.3989843,11.0265728 C77.3989843,11.2787226 77.4253271,11.5078415 77.4796095,11.7143264 C77.5338919,11.9319297 77.6680015,12.126105 77.8799423,12.2940725 C78.2499407,12.5986378 78.6582558,12.7487364 79.1048882,12.7487364 L81.6960741,12.7487364 C82.7789278,12.737618 83.3241465,12.1701816 83.3241465,11.0432504 L83.3241465,7.99164151 Z M83.8318467,10.9165798 C83.8318467,11.2425878 83.8074994,11.5304754 83.7651909,11.7822282 C83.6953423,12.0570119 83.5544475,12.3222657 83.3393138,12.5732243 C82.8926814,13.0413891 82.3394799,13.2697138 81.6789113,13.2578012 L79.1360207,13.2578012 C78.475452,13.2578012 77.9402116,13.0616405 77.5251111,12.6705104 C77.1016286,12.2841454 76.8864947,11.7476816 76.8864947,11.0583397 L76.8864947,9.75113128 C76.9084472,8.27396992 77.6480447,7.51791745 79.1040899,7.4841651 L83.3393138,7.4841651 L83.3393138,6.91116944 C83.3393138,6.43943083 83.2024103,6.02606388 82.9290028,5.67027449 C82.755379,5.43996438 82.5502233,5.28629195 82.3175277,5.20568342 C82.0820378,5.14453212 81.8174112,5.11395645 81.5224503,5.11395645 L76.9020609,5.11395645 L76.9020609,4.60528878 L81.2821707,4.60528878 C81.6833018,4.60528878 82.0457165,4.63348192 82.3734064,4.68867694 C82.5418416,4.7220322 82.6951095,4.78675728 82.8376008,4.88126384 C82.9860792,4.97100536 83.1261756,5.10363221 83.2558944,5.27596771 C83.6486435,5.77987033 83.8410267,6.36160189 83.8318467,7.01679442 L83.8318467,10.9165798 Z" id="Fill-17" fill-rule="nonzero"></path>
            <path d="M88.6144045,5.11383733 C87.4277754,5.13607416 86.8438408,5.7797512 86.865793,7.04725096 L86.865793,13.2576821 L86.3556982,13.2576821 L86.3556982,7.04923637 C86.3321494,5.41879967 87.1116603,4.60636093 88.695828,4.60636093 L89.2622009,4.60636093 L89.2622009,5.11383733 L88.6144045,5.11383733 Z" id="Fill-19" fill-rule="evenodd"></path>
            <path d="M97.2277835,5.11657706 L93.1973161,5.11657706 C92.9067456,5.11657706 92.6465095,5.14913813 92.411818,5.21028944 C92.1667489,5.26548445 91.9292635,5.41399476 91.7077434,5.65542328 C91.4950044,5.87461497 91.3616932,6.09221831 91.3042177,6.30982166 C91.2303777,6.52941041 91.1964512,6.79347288 91.2088244,7.10042064 L91.2088244,11.0605632 C91.2088244,11.7185353 91.4004093,12.1672429 91.789167,12.4070831 C91.9803528,12.5194586 92.190697,12.6028467 92.4273842,12.659233 C92.6632731,12.7211785 92.9247067,12.7521512 93.2140798,12.7521512 L94.9754635,12.7521512 C95.6332383,12.7521512 96.1720708,12.6012584 96.5855749,12.2970902 C97.0014738,12.0123793 97.2138138,11.519595 97.2277835,10.8183405 L97.2277835,5.11657706 Z M97.73708,10.8532841 C97.6919778,12.4920596 96.819069,13.2945712 95.1211478,13.2608189 L93.2320408,13.2608189 C92.8329056,13.2608189 92.4764779,13.2266694 92.1607619,13.1607531 C91.8358658,13.0765708 91.5245404,12.880013 91.2259872,12.5726681 C91.0004758,12.2970902 90.856388,12.0183355 90.7985134,11.7320363 C90.7202829,11.4473253 90.6863564,11.1296562 90.6983305,10.7833969 L90.6983305,7.0873168 C90.7202829,5.42273066 91.5632565,4.59520262 93.2284486,4.60830648 L97.2277835,4.60830648 L97.2277835,1.80209698 L97.73708,1.80209698 L97.73708,10.8532841 Z" id="Fill-21" fill-rule="nonzero"></path>
            <path d="M0.914099475,4.33463471 C1.080938,4.26117373 1.24857479,4.20439037 1.41501417,4.16825552 C1.72274743,2.70975721 3.02113428,1.61419587 4.57895905,1.61419587 C6.13678379,1.61419587 7.4367672,2.71094848 7.74290391,4.16984386 C8.22146705,4.25998248 8.61661091,4.45296645 8.92514243,4.73847156 C8.93751563,4.45852566 8.92673897,4.18850692 8.89321161,3.93437163 C8.69524054,1.72935092 6.83726612,3.97086385e-05 4.57217375,3.97086385e-05 C2.23922839,3.97086385e-05 0.341340439,1.83894677 0.242354905,4.13807695 C0.228784307,4.33662015 0.224792956,4.54350216 0.231578253,4.75951714 C0.427154509,4.59591756 0.651069367,4.44820142 0.914099475,4.33463471" id="Fill-24" fill-rule="evenodd"></path>
            <path d="M7.11063381,4.66151622 L1.91309501,4.66151622 C1.6624381,4.66151622 1.40379848,4.71909374 1.13717615,4.83782259 C0.879733932,4.95019804 0.668192269,5.08481032 0.499757206,5.2460274 C0.176856815,5.63199535 0.0112156996,6.19625511 3.99135221e-05,6.93761539 L3.99135221e-05,10.980749 C0.0112156996,11.7236976 0.176856815,12.2867661 0.499757206,12.6711458 C0.668192269,12.8343483 0.879733932,12.9705489 1.13717615,13.0825272 C1.40379848,13.1992706 1.6624381,13.2580394 1.91309501,13.2580394 L7.11063381,13.2580394 C8.45292555,13.2461268 9.13584591,12.5135025 9.15739921,11.0653284 L9.15739921,6.85383017 C9.13584591,5.4032736 8.45292555,4.6738259 7.11063381,4.66151622" id="Fill-26" fill-rule="evenodd"></path>
        </g>
    </g>
</svg>