<svg xmlns="http://www.w3.org/2000/svg" width="134" height="60" viewBox="0 0 134 60">
  <path fill="#FFF" d="M25.7420654,39 C24.5150636,39 23.3782826,38.2863294 22.6565168,37.0602798 C21.9347511,38.2863294 20.8160142,39 19.5709682,39 C19.5709682,39 19.5529241,39 19.5529241,39 C18.1996134,38.9817008 16.9906557,38.1216362 16.3049783,36.6942949 L16.3049783,36.6759957 L11,25.2023681 L17.7665539,22 L22.6565168,32.5037675 L27.4923473,22 L34.2589012,25.2023681 L29.0080554,36.6759957 C28.322378,38.1216362 27.1134203,38.9817008 25.7601096,38.9817008 C25.7601096,39 25.7601096,39 25.7420654,39 M24.2263573,35.8708288 C24.6052843,36.621098 25.1466087,37.0419806 25.7601096,37.0419806 C25.7601096,37.0419806 25.7601096,37.0419806 25.7601096,37.0419806 C26.3736104,37.0419806 26.9149348,36.6027987 27.2938618,35.8342304 L31.714677,26.1539289 L28.4306428,24.598493 L23.7391654,34.8094726 L24.2263573,35.8708288 Z M18.0552602,35.8342304 C18.4161431,36.6027987 18.9755115,37.0419806 19.5709682,37.0419806 C19.5709682,37.0419806 19.5709682,37.0419806 19.5709682,37.0419806 C20.166425,37.0419806 20.7257935,36.621098 21.1047205,35.8708288 L21.5919123,34.8094726 L16.8463026,24.598493 L13.5622684,26.1539289 L18.0552602,35.8342304 Z M42.4328983,36.8223897 C43.4433704,36.8223897 43.9486064,35.9989236 44.2012244,35.4133477 L46.6732721,29.0269107 L44.6884163,28.2949408 L42.4148542,34.6996771 L40.1412921,28.2949408 L38.1564363,29.0269107 L40.6465281,35.4133477 C40.9171903,35.9989236 41.4224263,36.8223897 42.4328983,36.8223897 Z M56.20058,36.8223897 C57.211052,36.8223897 57.716288,35.9989236 57.9689061,35.4133477 L60.4409537,29.0269107 L58.456098,28.2949408 L56.1825358,34.6996771 L53.9089737,28.2949408 L51.924118,29.0269107 L54.4142098,35.4133477 C54.6848719,35.9989236 55.1901079,36.8223897 56.20058,36.8223897 Z M69.4630259,36.621098 L67.4240374,36.621098 L67.4240374,35.6878364 C66.8827131,36.3649085 66.0887707,36.8223897 64.9519897,36.8223897 C62.6784276,36.8223897 60.9461898,34.9375673 60.9461898,32.4122713 C60.9461898,29.9052745 62.6603835,28.0021528 64.9519897,28.0021528 C66.0887707,28.0021528 66.8827131,28.459634 67.4240374,29.1550054 L67.4240374,28.2217438 L69.4630259,28.2217438 L69.4630259,36.621098 Z M63.0032222,32.4305705 C63.0032222,33.7847147 63.8693411,34.8643703 65.2587401,34.8643703 C66.5940068,34.8643703 67.4962139,33.8213133 67.4962139,32.4305705 C67.4962139,31.0398278 66.5940068,29.9967707 65.2587401,29.9967707 C63.8693411,29.9967707 63.0032222,31.0764263 63.0032222,32.4305705 M114.645562,32.4122713 C114.645562,32.6684607 114.627517,32.9795479 114.609473,33.1808396 L108.636861,33.1808396 C108.871436,34.3885899 109.827775,34.9741658 110.874335,34.9741658 C111.758498,34.9741658 112.390043,34.6996771 112.9855,34.1872982 L114.266635,35.5597416 C113.328339,36.4381055 112.137426,36.8223897 110.748026,36.8223897 C108.221846,36.8223897 106.45352,35.0839612 106.45352,32.4488697 C106.45352,29.8137782 108.167714,28.0204521 110.621718,28.0204521 C113.003544,28.0204521 114.645562,29.795479 114.645562,32.4122713 M108.600773,31.6986007 L112.534397,31.6986007 C112.408087,30.5823466 111.632189,29.8320775 110.603674,29.8320775 C109.50298,29.8503768 108.67295,30.6738428 108.600773,31.6986007 M122.386499,30.2529602 L119.192686,30.2529602 L119.192686,33.3089343 C119.192686,34.3519914 119.553569,34.8277718 120.600129,34.8277718 C121.123409,34.8277718 121.754954,34.4983854 122.206057,34.2238967 L123,35.9623251 C122.278234,36.4564047 121.448204,36.8406889 120.25729,36.8406889 C118.218302,36.8406889 117.171742,35.6695372 117.171742,33.4919268 L117.171742,30.2529602 L115.583857,30.2529602 L115.583857,28.2949408 L117.171742,28.2949408 L117.171742,25.7513456 L119.192686,25.7513456 L119.192686,28.2949408 L122.386499,28.2949408 L122.386499,30.2529602 L122.386499,30.2529602 Z M85.0712097,28.2949408 L82.7976478,34.6996771 L80.7586594,28.9720129 C80.5601742,28.4230355 80.1090703,28.0204521 79.5136135,28.0204521 C78.9362008,28.0204521 78.4670534,28.4230355 78.2685676,28.9720129 L76.2476239,34.6996771 L73.9740614,28.2949408 L71.9892059,29.0269107 L74.4792976,35.4133477 C74.7319158,35.9989236 75.2371514,36.8223897 76.2476239,36.8223897 C77.2580957,36.8223897 77.763332,35.9989236 78.0159495,35.4133477 L79.5136135,31.5522067 L81.0112775,35.4133477 C81.2638956,35.9989236 81.7691318,36.8223897 82.7796037,36.8223897 C83.7900756,36.8223897 84.2953118,35.9989236 84.5479299,35.4133477 L87.0560658,29.0269107 L85.0712097,28.2949408 Z M96.005961,36.621098 L93.9669725,36.621098 L93.9669725,35.6878364 C93.4256487,36.3649085 92.6317061,36.8223897 91.4949249,36.8223897 C89.221363,36.8223897 87.489125,34.9375673 87.489125,32.4122713 C87.489125,29.9052745 89.2033189,28.0021528 91.4949249,28.0021528 C92.6317061,28.0021528 93.4256487,28.459634 93.9669725,29.1550054 L93.9669725,28.2217438 L96.005961,28.2217438 L96.005961,36.621098 Z M89.5461576,32.4305705 C89.5461576,33.7847147 90.4122766,34.8643703 91.8016753,34.8643703 C93.1369424,34.8643703 94.0391496,33.8213133 94.0391496,32.4305705 C94.0391496,31.0398278 93.1369424,29.9967707 91.8016753,29.9967707 C90.4122766,29.9967707 89.5461576,31.0764263 89.5461576,32.4305705 M98.1893023,24.1776103 L100.210247,24.1776103 L100.210247,36.6393972 L98.1893023,36.6393972 L98.1893023,24.1776103 Z M102.574029,24.1776103 L104.594973,24.1776103 L104.594973,36.6393972 L102.574029,36.6393972 L102.574029,24.1776103 Z M48.2792009,28.2400431 L50.300145,28.2400431 L50.300145,36.621098 L48.2792009,36.621098 L48.2792009,28.2400431 Z M50.5888513,25.4219591 C50.5888513,26.1539289 50.0114387,26.7212056 49.289673,26.7212056 C48.5679072,26.7212056 48.0085387,26.1539289 48.0085387,25.4219591 C48.0085387,24.6899892 48.5679072,24.1044133 49.289673,24.1044133 C50.0114387,24.0861141 50.5888513,24.67169 50.5888513,25.4219591 Z"/>
</svg>
