<?xml version="1.0" encoding="UTF-8"?>
<svg width="113px" height="60px" viewBox="0 0 113 60" version="1.1" xmlns="http://www.w3.org/2000/svg" xmlns:xlink="http://www.w3.org/1999/xlink">
    <!-- Generator: Sketch 52.3 (67297) - http://www.bohemiancoding.com/sketch -->
    <title>footer/payments/BankTransfer</title>
    <desc>Created with Sketch.</desc>
    <g id="footer/payments/BankTransfer" stroke="none" stroke-width="1" fill="none" fill-rule="evenodd">
        <g id="logo_banktransfer" transform="translate(20.000000, 17.000000)" fill="#FFFFFF">
            <g>
                <polygon id="Shape" fill-rule="nonzero" points="2.61709774 26.5436336 2.61709774 18.8047541 0.320782873 18.8047541 0.320782873 16.4096777 7.70721655 16.4096777 7.70721655 18.8047541 5.41072996 18.8047541 5.41072996 26.5436336"></polygon>
                <path d="M9.07243515,26.5436336 L9.07243515,16.4096777 L11.992114,16.4096777 C13.1356348,16.4096777 13.9326134,16.4616302 14.3830496,16.5653653 C14.8334859,16.6692703 15.222101,16.8434638 15.5488948,17.087946 C15.9175897,17.364856 16.2011087,17.7179969 16.3996235,18.1470292 C16.5979666,18.5760614 16.697224,19.0492363 16.697224,19.5658747 C16.697224,20.3504248 16.5023154,20.9886251 16.11267,21.4797966 C15.7226811,21.9714774 15.1544411,22.2977932 14.4076064,22.4595928 L17.2012387,26.5436336 L14.0435481,26.5436336 L11.691079,22.5772499 L11.691079,26.5436336 L9.07243515,26.5436336 Z M11.691079,21.1996607 L12.2091751,21.1996607 C12.8112451,21.1996607 13.2510344,21.097963 13.5288865,20.8949069 C13.8067385,20.6920207 13.9456645,20.3736845 13.9456645,19.9397287 C13.9456645,19.4320886 13.8161834,19.070968 13.5570495,18.8565368 C13.2980872,18.641766 12.8627628,18.5346353 12.2512479,18.5346353 L11.6912507,18.5346353 L11.6912507,21.1996607 L11.691079,21.1996607 Z" id="Shape" fill-rule="nonzero"></path>
                <path d="M17.0611105,26.5436336 L20.5967692,16.4096777 L24.0975674,16.4096777 L27.6402668,26.5436336 L24.860716,26.5436336 L24.3426198,24.7298815 L20.3726673,24.7298815 L19.8404896,26.5436336 L17.0611105,26.5436336 Z M20.9749089,22.7572159 L23.7544597,22.7572159 L22.7112265,19.4137524 C22.6785987,19.3122244 22.6342935,19.1485572 22.5781393,18.9222414 C22.5221567,18.6962652 22.4498601,18.405603 22.3610781,18.0500852 C22.3002873,18.2993212 22.2408702,18.5368424 22.1826551,18.7629884 C22.1242684,18.9889647 22.0646797,19.2059426 22.0040605,19.4135826 L20.9749089,22.7572159 Z" id="Shape" fill-rule="nonzero"></path>
                <path d="M28.6206482,26.5436336 L28.6206482,16.4096777 L31.3162253,16.4096777 L35.1881225,21.6219018 C35.2626514,21.7283535 35.38492,21.9414264 35.5554435,22.2623093 C35.7257954,22.5830224 35.9140067,22.964856 36.1192187,23.4078102 C36.0632363,22.987946 36.0223656,22.6142618 35.9967785,22.2865877 C35.9710196,21.9587439 35.9581401,21.6680818 35.9581401,21.4142618 L35.9581401,16.4095079 L38.6396356,16.4095079 L38.6396356,26.5434638 L35.9581401,26.5434638 L32.0862428,21.3103568 C32.0067339,21.204075 31.882061,20.9908322 31.7117093,20.6701191 C31.5411858,20.3490665 31.3557221,19.9721565 31.1551466,19.5382006 C31.2111291,19.9628186 31.2516564,20.3388798 31.2775869,20.6665538 C31.3030023,20.9943976 31.3162253,21.2852295 31.3162253,21.5388798 L31.3162253,26.5436336 L28.6206482,26.5436336 Z" id="Shape" fill-rule="nonzero"></path>
                <path d="M41.2933114,23.26944 C41.7087157,23.735654 42.1182812,24.0840411 42.5220081,24.3146013 C42.925735,24.5453314 43.3282599,24.6607813 43.7297543,24.6607813 C44.1030859,24.6607813 44.4099595,24.5614604 44.6503753,24.3631582 C44.8906195,24.164856 45.0109991,23.9132431 45.0109991,23.608659 C45.0109991,23.2718169 44.9071051,23.0122244 44.6996607,22.8298815 C44.491701,22.6475385 44.0216879,22.4595928 43.288763,22.2657049 C42.2851986,21.9981327 41.5756283,21.6495758 41.1602241,21.2205436 C40.7448199,20.7915113 40.5370319,20.2030563 40.5370319,19.4555181 C40.5370319,18.486418 40.864856,17.6962652 41.5208478,17.0847202 C42.1763245,16.4730054 43.0270532,16.1675725 44.0726904,16.1675725 C44.637496,16.1675725 45.1729363,16.2424451 45.679527,16.39253 C46.1856024,16.5424451 46.6654038,16.7696098 47.1182441,17.0743636 L46.2429587,19.0609511 C45.9254381,18.7935487 45.5998462,18.5913416 45.2661834,18.4555181 C44.9325206,18.3193551 44.6022922,18.2511039 44.2753266,18.2511039 C43.9392596,18.2511039 43.6662158,18.3309001 43.4561955,18.4898135 C43.2460033,18.6492363 43.1410791,18.853311 43.1410791,19.102547 C43.1410791,19.356367 43.233124,19.5592533 43.4175571,19.7115453 C43.6018187,19.8638373 43.957806,20.0091684 44.485347,20.1475385 L44.6113937,20.1821735 C45.7501062,20.4867575 46.4993449,20.8215623 46.8587666,21.1859086 C47.1014149,21.4353144 47.2858483,21.7339562 47.411895,22.0823433 C47.5379415,22.4309001 47.6011366,22.817148 47.6011366,23.241766 C47.6011366,24.317148 47.2439472,25.180985 46.5299122,25.8342957 C45.8158771,26.4872669 44.8634868,26.8137524 43.6732566,26.8137524 C42.9590498,26.8137524 42.3090683,26.6935487 41.7233123,26.4538203 C41.1375564,26.2139222 40.5741246,25.8376913 40.032502,25.3254672 L41.2933114,23.26944 Z" id="Shape" fill-rule="nonzero"></path>
                <polygon id="Shape" fill-rule="nonzero" points="49.1698501 26.5436336 49.1698501 16.4096777 55.4501991 16.4096777 55.4501991 18.631749 51.8934181 18.631749 51.8934181 20.3898135 55.2470476 20.3898135 55.2470476 22.5634978 51.8934181 22.5634978 51.8934181 26.5436336"></polygon>
                <polygon id="Shape" fill-rule="nonzero" points="56.9696271 26.5436336 56.9696271 16.4096777 63.2498045 16.4096777 63.2498045 18.631749 59.6930236 18.631749 59.6930236 20.3898135 63.0468248 20.3898135 63.0468248 22.5634978 59.6930236 22.5634978 59.6930236 24.2730054 63.2498045 24.2730054 63.2498045 26.5436336"></polygon>
                <path d="M65.098259,26.5436336 L65.098259,16.4096777 L68.0179378,16.4096777 C69.1614586,16.4096777 69.9584371,16.4616302 70.4088736,16.5653653 C70.8593098,16.6692703 71.2480965,16.8434638 71.5745469,17.087946 C71.9434135,17.364856 72.2269325,17.7179969 72.4252756,18.1470292 C72.6234469,18.5760614 72.7228761,19.0492363 72.7228761,19.5658747 C72.7228761,20.3504248 72.5277957,20.9886251 72.1383221,21.4797966 C71.7483333,21.9714774 71.1802649,22.2977932 70.4334303,22.4595928 L73.2270624,26.5436336 L70.069372,26.5436336 L67.716731,22.5772499 L67.716731,26.5436336 L65.098259,26.5436336 Z M67.716731,21.1996607 L68.234999,21.1996607 C68.8372408,21.1996607 69.27703,21.097963 69.5547102,20.8949069 C69.8323907,20.6920207 69.9714883,20.3736845 69.9714883,19.9397287 C69.9714883,19.4320886 69.8420073,19.070968 69.5828732,18.8565368 C69.3237393,18.641766 68.8885867,18.5346353 68.2770717,18.5346353 L67.716731,18.5346353 L67.716731,21.1996607 Z" id="Shape" fill-rule="nonzero"></path>
                <path d="M17.831588,13.7013584 L17.831588,0.189304102 L21.4879777,0.189304102 C22.9955528,0.189304102 24.048742,0.238709874 24.6473775,0.337012081 C25.2460129,0.435484068 25.7612856,0.604584237 26.1930278,0.84465215 C26.6853212,1.12156217 27.0605376,1.49219035 27.3190126,1.95687627 C27.5774876,2.42139238 27.7066412,2.9582345 27.7066412,3.56740257 C27.7066412,4.33667252 27.5135817,4.94719883 27.1276304,5.39949087 C26.7415114,5.85178288 26.125935,6.19473704 25.2812367,6.42852312 C26.2294256,6.50237711 26.9711365,6.83921922 27.5060338,7.43921921 C28.0407634,8.03921922 28.3084636,8.84057744 28.3084636,9.8434637 C28.3084636,10.5633279 28.158008,11.1972837 27.8570968,11.7446522 C27.5561857,12.2925299 27.1261208,12.7169781 26.5669024,13.0183364 C26.1110068,13.2645163 25.5487692,13.4397285 24.8800217,13.5444824 C24.2112743,13.6492362 23.1169908,13.7015282 21.5975067,13.7015282 L17.831588,13.7015282 L17.831588,13.7013584 Z M21.2053493,5.58862498 L21.9348157,5.58862498 C22.8341946,5.58862498 23.4514484,5.48879476 23.7857382,5.28862498 C24.1198604,5.08879476 24.2872569,4.7426148 24.2872569,4.25025487 C24.2872569,3.73972854 24.1307629,3.38132448 23.817775,3.17504263 C23.5046194,2.96910036 22.8952491,2.86587455 21.9894963,2.86587455 L21.2053493,2.86587455 L21.2053493,5.58862498 Z M21.2053493,10.9415961 L22.4817897,10.9415961 C23.3449385,10.9415961 23.9558185,10.832428 24.3145972,10.6139221 C24.6733759,10.3955859 24.8525137,10.0309 24.8525137,9.52037371 C24.8525137,8.95432958 24.6884718,8.55891362 24.3600526,8.33429562 C24.0318011,8.10984739 23.4239403,7.99745351 22.5364703,7.99745351 L21.2051815,7.99745351 L21.2051815,10.9415961 L21.2053493,10.9415961 Z" id="Shape" fill-rule="nonzero"></path>
                <path d="M28.9284011,13.7013584 L33.5331474,0.189304102 L38.0922706,0.189304102 L42.7060746,13.7013584 L39.0862505,13.7013584 L38.4114646,11.2831921 L33.2416292,11.2831921 L32.5483929,13.7013584 L28.9284011,13.7013584 Z M34.0252731,8.65280155 L37.6454326,8.65280155 L36.2866359,4.19490682 C36.2440318,4.0597625 36.1863321,3.84125657 36.1133687,3.53972855 C36.0404052,3.23837031 35.9461398,2.85059442 35.8305725,2.37674043 C35.7515708,2.70899851 35.6740785,3.02597643 35.598096,3.32733467 C35.5219457,3.62886267 35.4444534,3.91799681 35.3656195,4.19490682 L34.0252731,8.65280155 Z" id="Shape" fill-rule="nonzero"></path>
                <path d="M43.9826829,13.7013584 L43.9826829,0.189304102 L47.4931456,0.189304102 L52.5355048,7.13904943 C52.6324539,7.28064535 52.7919669,7.56519544 53.0142118,7.99286947 C53.2359535,8.42054349 53.4805068,8.92971157 53.7483747,9.52037371 C53.6752436,8.96044163 53.6219048,8.46213942 53.5886939,8.02512754 C53.5553153,7.58828543 53.5385421,7.2008491 53.5385421,6.8623092 L53.5385421,0.189304102 L57.0307222,0.189304102 L57.0307222,13.7013584 L53.5385421,13.7013584 L48.4961829,6.72376929 C48.3926924,6.58234315 48.2303278,6.29779306 48.0084183,5.86994927 C47.7865088,5.44227524 47.5446393,4.93938899 47.2834806,4.36095095 C47.3566118,4.92716489 47.4097829,5.4286929 47.4431615,5.86536522 C47.4763724,6.30220733 47.4933134,6.68998322 47.4933134,7.02835333 L47.4933134,13.7013584 L43.9826829,13.7013584 Z" id="Shape" fill-rule="nonzero"></path>
                <polygon id="Shape" fill-rule="nonzero" points="59.8937395 13.7013584 59.8937395 0.189304102 63.4954486 0.189304102 63.4954486 6.32682532 67.7172628 0.189304102 71.957192 0.189304102 67.0241942 6.77911734 72.3857473 13.7011887 67.8449068 13.7011887 63.4954486 7.63735164 63.4954486 13.7011887 59.8937395 13.7011887"></polygon>
                <rect id="Rectangle-path" fill-rule="nonzero" x="0.128985902" y="0.15483871" width="14.78373" height="2.67775892"></rect>
                <rect id="Rectangle-path" fill-rule="nonzero" x="0.128985902" y="5.35297114" width="14.78373" height="2.67775892"></rect>
                <rect id="Rectangle-path" fill-rule="nonzero" x="0.128985902" y="11.0234295" width="14.78373" height="2.67792868"></rect>
            </g>
        </g>
    </g>
</svg>