<svg width="134" height="60" fill="none" xmlns="http://www.w3.org/2000/svg"><path fill-rule="evenodd" clip-rule="evenodd" d="M32.496 4.21H99.89v.077h1.511a9.916 9.916 0 0 1 1.511.013 5.13 5.13 0 0 1 1.434.472c.471.224.903.522 1.28.881.364.374.662.805.883 1.277.23.45.39.932.474 1.43.081.498.124 1.002.128 1.506v39.937c-.004.5-.047 1-.128 1.493a4.95 4.95 0 0 1-.474 1.43 4.668 4.668 0 0 1-.883 1.277c-.377.36-.809.657-1.28.88a5.127 5.127 0 0 1-1.434.473c-.5.081-1.005.124-1.511.128H32.497a10.059 10.059 0 0 1-1.511-.128 5.246 5.246 0 0 1-1.383-.485 4.851 4.851 0 0 1-1.216-.88 4.726 4.726 0 0 1-.896-1.277c-.23-.45-.39-.932-.474-1.43a9.81 9.81 0 0 1-.128-1.494V9.866a9.838 9.838 0 0 1 .128-1.506c.08-.48.232-.944.448-1.379.226-.472.529-.904.896-1.277a4.852 4.852 0 0 1 1.216-.88 5.246 5.246 0 0 1 1.409-.486c.5-.08 1.004-.123 1.51-.128zm68.867 1.699H99.89l.064.012H32.612a8.651 8.651 0 0 0-1.28.115c-.335.048-.66.152-.96.307-.293.15-.56.343-.794.574-.25.216-.461.47-.628.753-.156.301-.264.624-.32.958a7.196 7.196 0 0 0-.103 1.277v39.834c-.003.428.03.855.103 1.276.058.332.161.654.307.958.151.288.345.55.576.779a3.143 3.143 0 0 0 1.754.88c.424.07.852.108 1.28.116h68.828a9.355 9.355 0 0 0 1.281-.115c.33-.05.65-.153.947-.307.293-.15.56-.343.794-.574.228-.231.422-.493.576-.779.146-.304.249-.626.307-.958.072-.421.107-.849.103-1.276V9.917a7.187 7.187 0 0 0-.103-1.276 3.665 3.665 0 0 0-.307-.958 3.248 3.248 0 0 0-1.357-1.353 3.218 3.218 0 0 0-.973-.307 8.48 8.48 0 0 0-1.28-.114z" fill="#fff"/><path d="M47.924 21.497a4.384 4.384 0 0 0 1.011-3.166 4.447 4.447 0 0 0-2.906 1.507 4.117 4.117 0 0 0-1.088 3.038 3.653 3.653 0 0 0 2.944-1.379M48.922 23.093c-1.613-.09-2.995.92-3.84.92-.845 0-1.96-.869-3.24-.843a4.79 4.79 0 0 0-4.07 2.464c-1.755 3-.462 7.443 1.28 9.895.832 1.2 1.818 2.553 3.123 2.553 1.306 0 1.729-.804 3.227-.804 1.498 0 1.933.804 3.252.779 1.318-.026 2.202-1.213 3.021-2.426a10.683 10.683 0 0 0 1.357-2.77 4.405 4.405 0 0 1-2.637-3.997 4.479 4.479 0 0 1 2.125-3.74 4.613 4.613 0 0 0-3.61-1.967M65.118 19.735a5.706 5.706 0 0 1 4.313 1.653 5.673 5.673 0 0 1 1.666 4.297 5.75 5.75 0 0 1-1.708 4.33 5.783 5.783 0 0 1-4.36 1.658h-3.841v6.192h-2.894v-18.13h6.824zm-3.994 9.576h3.239c2.458 0 3.84-1.277 3.84-3.613 0-2.337-1.382-3.537-3.828-3.537h-3.252v7.15zM71.827 34.112c0-2.324 1.78-3.665 5.12-3.83l3.509-.205v-1.009c0-1.468-.973-2.272-2.689-2.272a2.47 2.47 0 0 0-2.676 1.851h-2.56c.077-2.362 2.291-4.06 5.3-4.06 3.226 0 5.326 1.685 5.326 4.29v8.988h-2.56v-2.17a4.65 4.65 0 0 1-4.161 2.31c-2.804 0-4.61-1.557-4.61-3.893zm8.565-1.175v-1.021l-3.137.204c-1.767.115-2.676.766-2.676 1.915s.948 1.826 2.446 1.826a3.09 3.09 0 0 0 2.294-.753 3.074 3.074 0 0 0 1.047-2.171h.026zM85.474 42.717v-2.17c.278.014.555.014.833 0a2.24 2.24 0 0 0 2.38-1.788l.257-.804-4.776-13.24h2.945l3.329 10.712 3.329-10.712h2.867L91.684 38.58c-1.127 3.18-2.433 4.226-5.121 4.226a7.715 7.715 0 0 1-1.089-.09z" fill="#fff"/></svg>