<svg width="63" height="24" fill="none" xmlns="http://www.w3.org/2000/svg"><g clip-path="url(#a)"><path fill-rule="evenodd" clip-rule="evenodd" d="M23.585 9.982c-.016 1.414 1.248 2.202 2.2 2.672.98.481 1.308.79 1.304 1.22-.007.66-.78.95-1.504.96-1.264.02-1.997-.344-2.582-.62l-.454 2.152c.586.272 1.67.51 2.794.522 2.64 0 4.367-1.318 4.376-3.36.011-2.59-3.546-2.733-3.521-3.891.008-.352.34-.726 1.066-.823.36-.047 1.353-.083 2.478.44l.441-2.082a6.693 6.693 0 0 0-2.351-.435c-2.484 0-4.233 1.334-4.247 3.245zM34.43 6.916c-.482 0-.889.284-1.07.72l-3.77 9.098h2.638l.524-1.467h3.224l.304 1.467h2.324l-2.029-9.818H34.43zm.369 2.653.761 3.686h-2.084l1.323-3.686zm-14.41-2.653-2.08 9.818h2.514L22.9 6.916h-2.512zm-3.719 0-2.616 6.682-1.058-5.681c-.124-.634-.614-1-1.159-1H7.559L7.5 7.2c.878.193 1.875.504 2.48.836.37.203.475.38.596.862l2.005 7.835h2.656l4.072-9.818h-2.64z" fill="#15195A"/><path d="M47.379 11.81a5.106 5.106 0 0 1 .507-2.206 5.053 5.053 0 0 1 1.408-1.762 4.97 4.97 0 0 0-4.515-.87 5.009 5.009 0 0 0-2.046 1.198 5.079 5.079 0 0 0-1.277 2.011 5.124 5.124 0 0 0 .654 4.598 5.036 5.036 0 0 0 1.785 1.566c.71.371 1.498.566 2.297.567a4.954 4.954 0 0 0 3.102-1.105 5.055 5.055 0 0 1-1.414-1.775 5.109 5.109 0 0 1-.501-2.222" fill="#EB001B"/><path d="M56.937 14.962v-.164h.068v-.031h-.169v.03h.068v.165h.033zm.323 0v-.198h-.05l-.062.136-.06-.136h-.05v.198h.037v-.147l.056.127h.036l.054-.13v.15h.039zM52.397 6.745a4.966 4.966 0 0 0-3.103 1.097 5.062 5.062 0 0 1 1.409 1.77 5.115 5.115 0 0 1 0 4.426 5.061 5.061 0 0 1-1.409 1.769c.63.498 1.368.836 2.154.987a4.97 4.97 0 0 0 2.361-.118 5.008 5.008 0 0 0 2.047-1.197 5.081 5.081 0 0 0 1.277-2.011 5.124 5.124 0 0 0-.654-4.598 5.037 5.037 0 0 0-1.785-1.566 4.979 4.979 0 0 0-2.297-.567" fill="#F79E1B"/><path d="M49.309 7.831h-.029l.014.011a5.052 5.052 0 0 0-1.408 1.762 5.106 5.106 0 0 0 1.408 6.203 5.062 5.062 0 0 0 1.409-1.77 5.115 5.115 0 0 0 0-4.425 5.061 5.061 0 0 0-1.409-1.77 1.41 1.41 0 0 1 .015-.01z" fill="#FF5F00"/></g><defs><clipPath id="a"><path fill="#fff" d="M0 0h63v24H0z"/></clipPath></defs></svg>