<svg width="65" height="24" fill="none" xmlns="http://www.w3.org/2000/svg"><g clip-path="url(#a)"><path fill-rule="evenodd" clip-rule="evenodd" d="M16.673 9.942v1.827H6.533V9.942h10.14zm0-3.5v1.826H6.533V6.441h10.14zm0-3.547v1.827H6.533V2.895h10.14z" fill="url(#b)"/><path d="M10.653 20.474v-4.979h1.718v-1.51H7.018v1.51h1.718v4.979h1.917zm4.4 0v-2.132h.63l1.03 2.132h2.143l-1.239-2.415c.633-.306 1.05-1.035 1.05-1.844v-.01c0-1.438-.914-2.22-2.591-2.22h-2.94v6.489h1.918zm.801-3.477h-.8v-1.605h.8c.506 0 .859.328.859.8v.01c0 .476-.344.795-.859.795zm5.4 3.477.339-1.291h1.953l.339 1.29h2.016l-2.129-6.489h-2.405l-2.13 6.49h2.017zm1.94-2.636h-1.249l.606-2.307h.036l.606 2.307zm5.322 2.636V17.1h.032l2.324 3.373h1.577v-6.49h-1.916v3.32H30.5l-2.306-3.32H26.6v6.49h1.917zm7.579.117c1.8 0 2.848-.85 2.848-2.19v-.005c0-1.052-.664-1.619-2.061-1.87l-.656-.118c-.651-.117-.931-.256-.931-.549v-.004c0-.297.27-.526.8-.526.524 0 .904.225.94.58l.005.045h1.763l-.005-.099c-.054-1.214-.98-1.988-2.726-1.988-1.546 0-2.676.823-2.676 2.127V16c0 1.007.71 1.66 2.007 1.889l.656.117c.723.13.985.256.985.562v.004c0 .324-.352.558-.926.558-.543 0-.986-.234-1.063-.585l-.009-.04h-1.763l.004.085c.068 1.282 1.117 2.002 2.808 2.002zm5.59-.117v-2.298h2.414v-1.43h-2.414v-1.25h2.667v-1.512h-4.584v6.49h1.916zm8.058 0v-1.511h-2.686v-1.03h2.518V16.53h-2.518v-1.035h2.686v-1.51H45.14v6.489h4.603zm2.922 0v-2.132h.628l1.03 2.132h2.144l-1.239-2.415c.633-.306 1.049-1.035 1.049-1.844v-.01c0-1.438-.913-2.22-2.59-2.22h-2.94v6.489h1.918zm.8-3.477h-.8v-1.605h.8c.506 0 .859.328.859.8v.01c0 .476-.344.795-.86.795z" fill="#00AFD8"/><path d="M23.349 12c2.012 0 3.314-1.082 3.314-2.72v-.013c0-1.23-1.068-2.176-2.33-2.208v-.052c1.08-.136 1.907-.94 1.907-2.008v-.013c0-1.457-1.127-2.331-3.047-2.331h-4.616V12h4.772zm-.944-5.64h-1.068V4.532h1.107c.69 0 1.113.343 1.113.9v.013c0 .55-.442.913-1.152.913zm.11 3.762h-1.178V8.01h1.198c.827 0 1.315.382 1.315 1.036v.013c0 .686-.488 1.062-1.334 1.062zM30.182 12l.488-1.859h2.812L33.97 12h2.903l-3.066-9.345h-3.464L27.277 12h2.904zm2.793-3.795h-1.797l.872-3.322h.052l.873 3.322zM40.638 12V7.143h.046L44.03 12h2.272V2.655h-2.76v4.78h-.046l-3.32-4.78h-2.298V12h2.76zm9.885 0V9.552l.736-.991L53.309 12h3.21l-3.235-5.2 3.092-4.145H53.48l-2.904 3.963h-.052V2.655h-2.76V12h2.76z" fill="#006E90"/></g><defs><linearGradient id="b" x1="6.533" y1="7.332" x2="16.673" y2="7.332" gradientUnits="userSpaceOnUse"><stop stop-color="#E70000" stop-opacity="0"/><stop offset=".332" stop-color="#DE0000" stop-opacity=".451"/><stop offset=".736" stop-color="#CD0000"/><stop offset=".793" stop-color="#C20000"/><stop offset=".892" stop-color="#A60000"/><stop offset="1" stop-color="maroon"/></linearGradient><clipPath id="a"><path fill="#fff" transform="translate(.6)" d="M0 0h64v24H0z"/></clipPath></defs></svg>