<svg width="82" height="24" fill="none" xmlns="http://www.w3.org/2000/svg"><g clip-path="url(#a)"><path d="M16.586 11.117c-.008-.26-.133-.396-.377-.405h-1.3c-.308.018-.466.184-.474.496v2.295c.008.322.183.486.525.496h1.191a.394.394 0 0 0 .309-.138.326.326 0 0 0 .126-.267v-2.477zm.066-2.088c1.052.009 1.587.574 1.605 1.696v3.455a1.415 1.415 0 0 1-.475 1.034 1.535 1.535 0 0 1-1.09.468h-2.257v2.49h-1.67v-7.38c.01-.575.14-1.012.393-1.31.132-.126.298-.23.5-.317.208-.092.411-.136.608-.136h2.386zm11.465 0v4.436c0 .356.148.534.447.534h1.178c.14 0 .262-.045.364-.138a.346.346 0 0 0 .148-.28V9.03h1.654v7.332c-.009.542-.15.976-.424 1.306-.278.33-.657.498-1.14.506h-3.897V16.49h3.332a.55.55 0 0 0 .34-.139.35.35 0 0 0 .135-.27v-.399h-2.137c-.28 0-.502-.035-.669-.104a1.538 1.538 0 0 1-.526-.348 1.666 1.666 0 0 1-.475-1.231v-4.97h1.67zm51.317-2.213v7.005c-.035 1.269-.72 1.89-2.051 1.864H75.9a4.17 4.17 0 0 1-.84-.078c-.255-.065-.5-.217-.733-.455a1.498 1.498 0 0 1-.336-.65 2.421 2.421 0 0 1-.078-.735v-2.86c.017-1.289.678-1.93 1.984-1.92h3.137V6.817h.4zm-30.23-.263V8.18h-.641c-.353.007-.533.173-.54.493v.356h1.182v1.685h-1.182v4.97h-1.67v-7.61c.01-.454.18-.819.515-1.093.324-.277.75-.42 1.277-.428h1.06zM23.412 9.029c1.102.018 1.661.541 1.68 1.573v3.52c-.01.447-.148.814-.417 1.106-.282.302-.645.454-1.09.454h-2.29c-1.112-.009-1.677-.508-1.694-1.5v-1.36c.008-1.036.548-1.562 1.616-1.58h2.22v-.166c.009-.252-.14-.372-.45-.364h-3.36V9.03h3.785zm14.907 0v1.683h-2.922c-.344 0-.516.103-.516.31v.162c0 .214.177.321.528.321h1.47c.392.009.726.156 1.004.443.281.29.427.633.436 1.033v1.227c-.01.346-.171.69-.484 1.034a1.364 1.364 0 0 1-.465.35c-.161.06-.38.09-.66.09h-3.49V14h2.974c.272-.01.414-.116.422-.322v-.15a.335.335 0 0 0-.04-.146c-.066-.127-.147-.19-.244-.19h-1.475a1.666 1.666 0 0 1-1.125-.442c-.317-.264-.48-.589-.489-.97v-1.255c.017-.98.559-1.478 1.627-1.495h3.449zm15.75 0c1.04.017 1.566.554 1.583 1.61v1.332l-3.766 1.454v.104c0 .135.036.242.108.32.053.1.123.15.217.15h3.43v1.683h-3.647c-.332 0-.591-.03-.774-.091-.201-.065-.38-.171-.538-.318a1.4 1.4 0 0 1-.37-.546c-.07-.195-.104-.453-.104-.775l-.014-3.37c.019-1.018.56-1.536 1.625-1.553h2.25zm7.483-.044v.394h-2.5c-.44 0-.787.089-1.04.267-.26.195-.392.53-.392 1.002v3.143c0 .222.034.436.102.644.071.205.187.383.355.54.182.136.363.22.54.255.184.039.381.058.59.058h2.385v.394h-2.407c-.253 0-.484-.023-.693-.064a1.497 1.497 0 0 1-.661-.304 1.553 1.553 0 0 1-.475-.658 2.255 2.255 0 0 1-.135-.813v-3.141c-.01-.257.016-.482.077-.676a1.4 1.4 0 0 1 .353-.572 1.53 1.53 0 0 1 .629-.39c.21-.052.448-.079.714-.079h2.558zm4.977 0c.315 0 .6.022.856.065a1.188 1.188 0 0 1 .692.455c.309.39.46.84.452 1.347v3.018a4 4 0 0 1-.052.67 1.509 1.509 0 0 1-.334.612c-.35.363-.784.54-1.302.53h-1.995c-.518 0-.938-.152-1.263-.454-.332-.3-.501-.715-.501-1.248v-1.012c.017-1.143.597-1.728 1.74-1.755h3.321v-.443c0-.365-.107-.685-.322-.96a1.015 1.015 0 0 0-.48-.36 2.515 2.515 0 0 0-.623-.071h-3.624v-.394h3.435zm6.26.001v.393h-.509c-.898.016-1.356.482-1.371 1.397v4.906h-.4v-4.805c-.019-1.262.593-1.89 1.835-1.89h.444zm-29.471.043c1.102.017 1.66.54 1.678 1.573v3.52c-.008.447-.148.814-.416 1.106-.28.302-.645.454-1.09.454h-2.29c-1.112-.009-1.677-.508-1.693-1.5v-1.36c.007-1.036.546-1.563 1.616-1.58h2.22v-.166c.008-.252-.142-.372-.45-.364h-3.36V9.029h3.785zm35.718.352h-3.161c-.228 0-.432.025-.616.073-.192.042-.379.157-.552.344a1.17 1.17 0 0 0-.317.507c-.058.17-.084.374-.075.611v3.066c0 .509.15.856.455 1.042.15.087.315.151.5.195.186.048.39.072.618.072h1.381c.516 0 .939-.117 1.263-.352.326-.22.493-.602.504-1.145V9.381zM68.13 11.606h-3.354c-.401.01-.715.131-.943.366-.234.238-.35.566-.35.98v1.003c0 .195.02.373.063.533a.832.832 0 0 0 .314.448c.29.236.61.352.96.352h2.033c.85-.008 1.277-.448 1.277-1.32v-2.362zM22.975 12.81h-1.27c-.167 0-.282.027-.346.078-.06.062-.09.181-.09.359v.419a.26.26 0 0 0 .134.228.44.44 0 0 0 .302.105h1.283c.29 0 .44-.11.448-.333v-.47c0-.257-.152-.386-.46-.386zm19.905 0h-1.27c-.167 0-.281.027-.345.078-.06.062-.09.181-.09.359v.419c0 .095.044.172.135.228a.436.436 0 0 0 .3.105h1.284c.29 0 .44-.11.449-.333v-.47c0-.257-.155-.386-.463-.386zm10.677-2.098h-1.162a.518.518 0 0 0-.362.125.355.355 0 0 0-.175.306v.675l2.094-.773v-.04a.258.258 0 0 0-.108-.214.495.495 0 0 0-.287-.08z" fill="#0089CB"/><path d="M8.355 9.029c1.053.01 1.588.574 1.605 1.697v3.26c-.017 1.12-.552 1.687-1.605 1.696H4.278c-.196 0-.4-.045-.608-.135a1.661 1.661 0 0 1-.5-.319c-.253-.297-.383-.733-.392-1.308v-3.13c.009-.573.139-1.01.392-1.309.132-.125.298-.229.5-.316.209-.092.412-.136.608-.136h4.077zM6.364 5.42c1.776 0 3.234 1.338 3.389 3.045.026.197.035.406.025.622a1.846 1.846 0 0 0-.927-.44C8.61 7.52 7.59 6.67 6.369 6.67c-1.222 0-2.24.848-2.481 1.977-.13.028-.262.072-.393.129a2.177 2.177 0 0 0-.536.329 4.764 4.764 0 0 1 .009-.481c.078-1.78 1.566-3.203 3.396-3.203z" fill="#E60008"/></g><defs><clipPath id="a"><path fill="#fff" transform="translate(.6)" d="M0 0h81v24H0z"/></clipPath></defs></svg>