<svg width="46" height="24" fill="none" xmlns="http://www.w3.org/2000/svg"><g clip-path="url(#a)"><path d="M38.538-.105H8.895a4.324 4.324 0 0 0-.665.057 2.273 2.273 0 0 0-.619.218 2.136 2.136 0 0 0-.535.397 2.127 2.127 0 0 0-.394.574 2.26 2.26 0 0 0-.197.62c-.036.225-.055.452-.057.679v17.965c.002.225.021.45.057.672.037.224.107.441.208.644.1.212.233.407.394.574.157.16.338.294.535.397.192.101.397.175.608.218.22.036.442.056.665.058h30.308c.222-.002.444-.021.664-.058.22-.038.432-.11.63-.212.208-.101.398-.235.564-.397a2.11 2.11 0 0 0 .389-.574c.1-.203.17-.42.208-.644.035-.222.054-.447.056-.672V2.44a4.54 4.54 0 0 0-.056-.678 2.263 2.263 0 0 0-.209-.644 2.11 2.11 0 0 0-.388-.574 2.162 2.162 0 0 0-.563-.397 2.221 2.221 0 0 0-.63-.212 4.261 4.261 0 0 0-.665-.006h-.665v-.034z" fill="#231F20"/><path d="M38.538.659h.648c.188.002.377.02.563.051.149.023.293.07.428.138.254.137.462.35.597.61.064.136.11.28.135.43.032.19.047.382.045.575V20.382a3.32 3.32 0 0 1-.045.575c-.026.15-.071.294-.135.43a1.42 1.42 0 0 1-.603.609c-.13.07-.271.116-.417.139-.186.03-.374.047-.563.051H8.917a3.88 3.88 0 0 1-.563-.051 1.36 1.36 0 0 1-.771-.397 1.42 1.42 0 0 1-.254-.35 1.672 1.672 0 0 1-.135-.431 3.31 3.31 0 0 1-.045-.575V2.457a3.31 3.31 0 0 1 .045-.575c.025-.15.072-.295.141-.43.073-.128.167-.242.276-.34a1.42 1.42 0 0 1 .35-.258 1.31 1.31 0 0 1 .421-.138c.187-.031.375-.049.564-.052h29.62" fill="#fff"/><path d="M15.68 7.674c.326-.397.486-.909.446-1.425a1.942 1.942 0 0 0-1.279.678c-.335.37-.508.864-.478 1.367.503.012.982-.218 1.295-.62M16.12 8.392c-.71-.04-1.318.413-1.69.413-.371 0-.861-.39-1.424-.379a2.1 2.1 0 0 0-1.791 1.109c-.771 1.35-.203 3.35.563 4.453.366.54.8 1.149 1.374 1.149.575 0 .76-.362 1.42-.362.658 0 .85.362 1.43.35.58-.011.968-.546 1.329-1.091.256-.384.458-.804.596-1.247a1.984 1.984 0 0 1-1.16-1.798c.01-.687.363-1.322.935-1.684a2.018 2.018 0 0 0-1.588-.885M23.243 6.88a2.479 2.479 0 0 1 1.897.744c.501.51.767 1.213.733 1.934a2.62 2.62 0 0 1-.751 1.949 2.512 2.512 0 0 1-1.918.746h-1.69v2.786h-1.272V6.881h3.001zm-1.756 4.31h1.424c1.081 0 1.69-.575 1.69-1.626 0-1.052-.609-1.592-1.684-1.592h-1.43v3.218zM26.194 13.35c0-1.046.783-1.649 2.253-1.724l1.543-.092v-.453c0-.661-.428-1.023-1.183-1.023a1.088 1.088 0 0 0-1.177.833h-1.126c.034-1.063 1.008-1.827 2.331-1.827 1.42 0 2.343.758 2.343 1.93v4.045h-1.126v-.977a2.036 2.036 0 0 1-1.83 1.04c-1.234 0-2.028-.7-2.028-1.752zm3.768-.529v-.46l-1.38.093c-.777.051-1.177.344-1.177.861 0 .518.417.822 1.076.822a1.34 1.34 0 0 0 1.009-.339c.277-.248.443-.6.46-.977h.012zM32.197 17.222v-.976c.122.006.244.006.366 0a.989.989 0 0 0 1.048-.805l.112-.362-2.1-5.957h1.295l1.464 4.82 1.464-4.82h1.262l-2.18 6.239c-.495 1.43-1.07 1.902-2.252 1.902a3.31 3.31 0 0 1-.479-.04z" fill="#231F20"/></g><defs><clipPath id="a"><path fill="#fff" transform="translate(.6)" d="M0 0h45v24H0z"/></clipPath></defs></svg>