<svg width="64" height="24" fill="none" xmlns="http://www.w3.org/2000/svg"><g clip-path="url(#a)"><path d="M11.476 9.699h-5.26c0 4.06 3.533 7.352 7.89 7.352V12.15c-1.452 0-2.63-1.097-2.63-2.451z" fill="#F68C22"/><path d="M11.476 9.699h-2.63c0 2.707 2.355 4.902 5.26 4.902V12.15c-1.452 0-2.63-1.097-2.63-2.451z" fill="#CE6A28"/><path d="M14.106 2.346c4.358 0 7.89 3.292 7.89 7.353h-5.26c0-1.354-1.177-2.451-2.63-2.451V2.346z" fill="#2D70B3"/><path d="M14.106 4.797c2.906 0 5.26 2.195 5.26 4.902h-2.63c0-1.354-1.177-2.451-2.63-2.451V4.797z" fill="#154A8B"/><path d="M14.107 7.248V2.346c-4.358 0-7.89 3.292-7.89 7.353h5.26c0-1.354 1.177-2.451 2.63-2.451z" fill="#EE3E37"/><path d="M14.107 7.248V4.797c-2.906 0-5.26 2.195-5.26 4.902h2.63c0-1.354 1.177-2.451 2.63-2.451z" fill="#C72127"/><path d="M14.106 12.15c1.453 0 2.63-1.097 2.63-2.451h5.26c0 4.06-3.532 7.352-7.89 7.352V12.15z" fill="#019A94"/><path d="M14.106 12.15c1.453 0 2.63-1.097 2.63-2.451h2.63c0 2.707-2.354 4.902-5.26 4.902V12.15z" fill="#00756F"/><path d="M51.401 15.972c-1.508-.018-2.743-.201-3.905-.71-.779-.34-1.452-.806-1.88-1.527a3.926 3.926 0 0 1-.318-.73c-.08-.234.017-.458.233-.598a.978.978 0 0 1 .958-.09.452.452 0 0 1 .27.291c.215.73.751 1.184 1.451 1.493.574.254 1.184.378 1.81.445a9.502 9.502 0 0 0 2.528-.047c.785-.125 1.545-.324 2.18-.801.654-.492.913-1.136.738-1.914-.096-.42-.386-.705-.772-.91a3.948 3.948 0 0 0-1.409-.418c-.86-.102-1.723-.177-2.587-.255-1.008-.09-2.017-.167-2.986-.472a5.284 5.284 0 0 1-.853-.349c-.802-.416-1.264-1.061-1.383-1.92-.134-.956.11-1.803.813-2.518.41-.419.908-.726 1.453-.963a7.765 7.765 0 0 1 2.78-.627c1.147-.052 2.277.042 3.373.38.815.252 1.545.64 2.074 1.292.21.26.375.557.529.852.268.514-.132.806-.516.87-.36.058-.682-.032-.853-.41-.263-.587-.78-.93-1.382-1.172-.587-.234-1.207-.34-1.838-.391-.753-.063-1.506-.056-2.25.093-.67.133-1.314.327-1.868.722-.5.356-.795.816-.785 1.426.009.547.251.97.742 1.263.435.26.92.394 1.42.46.71.094 1.425.163 2.14.229 1.067.099 2.144.143 3.187.403a6.3 6.3 0 0 1 1.07.37c.86.388 1.346 1.046 1.466 1.936.085.634.024 1.255-.26 1.844-.359.744-.97 1.253-1.72 1.631-.746.377-1.548.595-2.382.703-.498.065-1.001.093-1.268.117v.002zM35.51 11.382c.037.04.063.071.091.1 1.056 1.078 2.113 2.155 3.17 3.23.307.311.327.68.04.935a.768.768 0 0 1-1.06-.043c-.267-.268-.529-.54-.793-.81-1.066-1.091-2.132-2.183-3.201-3.271a.262.262 0 0 0-.168-.07c-1.224-.005-2.448-.004-3.67-.004-.04 0-.078.005-.131.01v3.613c0 .567-.558.892-1.101.64-.235-.109-.357-.288-.36-.534-.003-.202 0-.405 0-.608V4.325c0-.47.263-.72.76-.72 1.693 0 3.387-.015 5.079.009 1.14.016 2.226.262 3.18.887 1.05.69 1.618 1.647 1.718 2.848.058.694-.031 1.369-.342 2.008-.397.818-1.077 1.355-1.948 1.679-.357.132-.736.207-1.106.308-.045.012-.092.02-.157.034v.004zm-5.715-1.129c.045.002.084.006.122.006 1.39 0 2.78.005 4.17-.002a5.208 5.208 0 0 0 1.849-.323c.634-.242 1.152-.615 1.443-1.216.45-.935.237-2.3-.896-3.105-.74-.526-1.594-.73-2.502-.739-1.35-.015-2.7-.004-4.05-.003-.044 0-.086.004-.137.006v5.377l.001-.001zM25.26 9.54v5.644c0 .318-.16.54-.456.643-.31.11-.682.038-.877-.165-.138-.145-.173-.319-.173-.506V3.893c.001-.534.478-.853 1.016-.683.314.1.49.338.49.675v5.656zM41.822 9.529v-5.62c0-.371.167-.607.493-.706.458-.139 1.01.117 1.01.69-.007 3.77-.004 7.541-.004 11.312 0 .37-.249.618-.667.67-.378.047-.72-.149-.807-.47a1.056 1.056 0 0 1-.025-.27V9.53zM39.685 20.722h-.307c-.09 0-.08-.059-.08-.112V19.22c0-.238-.098-.332-.347-.333h-.47v1.825s0 .003-.004.003c-.248.026-.372-.08-.372-.314V19.05c0-.159-.005-.163-.166-.164-.171 0-.342.004-.514-.002-.105-.004-.136.036-.134.131.003.522-.003 1.042.004 1.563.001.114-.034.157-.155.143-.072-.008-.147 0-.231 0-.003-.05-.008-.089-.008-.129v-1.736c0-.221.101-.318.334-.32h1.775c.408.003.681.263.684.649v1.4c0 .041-.005.082-.008.133l-.001.003zM32.537 18.54h.308c.092.003.067.073.068.12v1.378c0 .231.096.32.342.32h.487c.196 0 .299-.095.3-.284.002-.455 0-.91 0-1.365v-.168c.117 0 .224-.006.332.004.023.002.058.054.06.084.007.148.004.297.004.446v2.047c0 .4-.286.667-.711.667h-.96c-.044 0-.086-.003-.125-.005-.007-.015-.014-.022-.015-.03-.027-.216.073-.324.3-.324.271 0 .543.002.815 0 .16-.003.273-.078.285-.221.017-.194.005-.392.005-.59-.331.17-.679.119-1.016.074a.57.57 0 0 1-.491-.53c-.012-.525-.005-1.05-.005-1.576 0-.011.007-.023.017-.047zM24.138 20.582v1.2h-.38c-.003-.044-.008-.084-.008-.125v-2.913c0-.183.023-.205.222-.205h1.012c.462.001.685.21.689.645.003.298.003.596 0 .893-.005.398-.273.643-.697.645-.119 0-.237-.002-.356 0-.163.004-.325.004-.483-.142v.002zm1.14-.956v-.47c-.003-.176-.09-.263-.272-.266-.249-.004-.499 0-.748-.002-.075 0-.115.024-.115.099 0 .375-.003.75.003 1.126.004.157.112.243.282.244h.552c.184-.001.294-.102.297-.275.003-.153 0-.305 0-.458v.002zM44.045 20.72c-.435 0-.856.014-1.275-.004a.609.609 0 0 1-.595-.578 9.007 9.007 0 0 1 .007-1.089c.018-.285.24-.484.54-.5a7.82 7.82 0 0 1 .867 0c.324.018.537.249.553.575.009.177.001.355.002.533 0 .091-.04.134-.142.133-.413-.004-.824 0-1.236-.004-.06 0-.119-.02-.191-.032 0 .133-.011.271.003.407.012.12.132.197.278.197.342.001.684.006 1.025-.002.137-.004.182.04.166.162-.01.061-.002.123-.002.202zm-.889-1.282h.303c.324 0 .33-.007.295-.311-.019-.164-.099-.234-.276-.237-.153-.003-.306 0-.46 0-.407 0-.45.044-.45.427 0 .104.042.127.14.123.15-.005.299-.001.448-.001v-.001zM28.397 18.551c.396 0 .778-.024 1.155.007.305.025.492.267.496.568.005.474.002.95 0 1.426 0 .122-.055.17-.187.17-.355 0-.71.003-1.064 0a.654.654 0 0 1-.662-.628c-.008-.226.021-.438.206-.603a.66.66 0 0 1 .449-.177c.246 0 .491-.003.736.001.1.002.13-.038.128-.126-.002-.195-.105-.299-.315-.3a35.129 35.129 0 0 0-.814.001c-.095.002-.14-.021-.131-.118.007-.069.001-.14.001-.22h.002zm1.257 1.104c-.12.008-.218.016-.317.018-.175.003-.35-.001-.525.002-.146.002-.241.074-.265.21a.77.77 0 0 0 0 .246c.02.137.121.22.27.223.245.004.49 0 .735.002.073 0 .104-.028.104-.096v-.604h-.002zM56.906 18.547c.008.02.014.028.014.036.018.204-.079.306-.292.306h-.946c-.21 0-.328.142-.262.328.014.04.086.076.138.087.42.097.842.19 1.264.283.176.038.193.057.194.224 0 .107.003.215 0 .322-.006.338-.207.565-.565.58-.463.02-.927.006-1.388.006-.009-.014-.016-.02-.016-.027-.005-.401-.055-.322.323-.328.325-.005.65 0 .973-.002.25-.002.4-.22.297-.433-.015-.031-.074-.052-.117-.062-.44-.105-.883-.21-1.326-.307-.128-.028-.19-.087-.18-.213.009-.128-.003-.258.021-.382a.495.495 0 0 1 .474-.414c.463-.016.928-.004 1.394-.004zM46.547 20.723v-1.541c0-.12-.004-.24 0-.36.006-.17.12-.28.299-.281.347-.003.693-.008 1.039 0 .33.008.618.261.625.562.01.532.003 1.066.003 1.618-.112 0-.22.007-.326-.005-.026-.003-.061-.07-.061-.108-.005-.4-.003-.8-.003-1.202 0-.083.003-.165-.002-.248-.01-.164-.123-.267-.297-.269-.245-.003-.491.003-.736-.002-.103-.002-.137.031-.136.128.005.517-.002 1.033.005 1.55 0 .125-.038.175-.171.16-.073-.01-.147-.002-.238-.002h-.001zM52.073 20.722c-.185 0-.348.006-.51-.001-.342-.017-.63-.286-.632-.603-.005-.86 0-1.72 0-2.58 0-.015.004-.03.008-.06.108 0 .212-.007.315.006.027.003.067.066.068.102.005.281.003.563.003.844v.129h.625c0 .089.006.183-.004.275-.002.023-.057.057-.089.058a5.386 5.386 0 0 1-.408.002c-.087-.003-.127.019-.126.11.004.351 0 .703.002 1.054.002.206.109.3.326.3.1 0 .202.005.303 0 .094-.005.125.034.12.118-.004.077 0 .155 0 .247v-.001z" fill="#404041"/></g><defs><clipPath id="a"><path fill="#fff" d="M0 0h64v24H0z"/></clipPath></defs></svg>