<svg width="74" height="24" fill="none" xmlns="http://www.w3.org/2000/svg"><g clip-path="url(#a)" fill-rule="evenodd" clip-rule="evenodd"><path d="M42.463 10.52a.48.48 0 0 1 .459.344l.969 3.256 2.285-3.388a.48.48 0 0 1 .396-.211h1.657c.232 0 .367.262.236.453l-5.512 8.008a.477.477 0 0 1-.393.206h-1.655a.289.289 0 0 1-.234-.456l1.716-2.438-1.825-5.391a.289.289 0 0 1 .272-.382h1.629zM13.25 3.896c1.626 0 2.898.345 3.602 1.152.639.734.826 1.544.64 2.733a3.352 3.352 0 0 0-.652-.261 4.872 4.872 0 0 0-.605-.135 7.647 7.647 0 0 0-1.222-.09h-3.701a.592.592 0 0 0-.583.502l-.788 5.02-.732 4.676H6.294a.408.408 0 0 1-.4-.473L7.861 4.47a.676.676 0 0 1 .667-.574h4.723zm22.128 6.47c.795 0 1.59.174 1.948.695l.115.169.073-.464a.288.288 0 0 1 .283-.244h1.65c.176 0 .31.158.282.333l-.891 5.68a.48.48 0 0 1-.473.408H36.88a.288.288 0 0 1-.283-.335l.073-.461s-.814.95-2.282.95c-.855 0-1.574-.248-2.077-.844-.548-.648-.772-1.578-.614-2.55.303-1.948 1.86-3.337 3.681-3.337zm-6.224-3.05c1.152 0 2.02.306 2.51.885.445.527.593 1.28.439 2.237-.342 2.19-1.651 3.294-3.92 3.294h-1.09a.479.479 0 0 0-.472.407l-.375 2.397a.48.48 0 0 1-.473.407H24.13a.288.288 0 0 1-.284-.333L25.24 7.72a.48.48 0 0 1 .473-.406h3.443zm6.615 4.81c-.939 0-1.699.657-1.847 1.597-.078.461.015.875.258 1.166.246.293.629.448 1.108.448.953 0 1.7-.637 1.86-1.585.072-.46-.028-.876-.279-1.174-.25-.296-.631-.452-1.1-.452zm-7.808-2.887h-.327a.287.287 0 0 0-.283.244l-.365 2.322h.648c.871-.002 1.738-.057 1.917-1.243.07-.437.014-.753-.167-.966-.303-.357-.89-.357-1.512-.357h.09z" fill="#253B80"/><path d="m9.547 18.67.263-1.684-.586-.014h-2.8L8.37 4.55a.164.164 0 0 1 .054-.097.158.158 0 0 1 .104-.038h4.722c1.568 0 2.65.328 3.215.976.265.304.433.622.515.972.085.367.087.805.003 1.34l-.006.039v.342l.265.151c.223.12.4.256.536.412.227.26.373.59.435.982.064.403.043.882-.062 1.425-.12.624-.316 1.168-.58 1.613a3.31 3.31 0 0 1-.918 1.014c-.35.25-.767.44-1.238.562-.456.12-.976.18-1.547.18h-.367a1.11 1.11 0 0 0-1.093.939l-.028.151-.465 2.967-.021.11c-.006.034-.015.051-.03.063a.078.078 0 0 1-.048.017H9.547z" fill="#253B80"/><path d="m17.493 7.78.097.055c.223.13.416.285.576.467.602.69.72 1.673.492 2.85-.545 2.815-2.409 3.788-4.79 3.788h-.367a.592.592 0 0 0-.584.503l-.03.162-.462 2.956-.025.125a.592.592 0 0 1-.584.502H9.36a.356.356 0 0 1-.35-.413l.2-1.283.71-4.529.011-.054a.674.674 0 0 1 .654-.52h1.386c2.721 0 4.852-1.111 5.475-4.33.018-.095.034-.188.048-.279zm42.447 2.585c.795 0 1.59.174 1.947.696l.116.168.073-.464a.286.286 0 0 1 .283-.244h1.648c.176 0 .311.159.284.333l-.891 5.68a.48.48 0 0 1-.473.408h-1.484a.288.288 0 0 1-.284-.335l.073-.46s-.814.95-2.282.95c-.856 0-1.573-.249-2.077-.845-.548-.648-.77-1.577-.614-2.55.303-1.948 1.86-3.337 3.681-3.337zm7.885-3.05c.175 0 .31.158.283.333l-1.394 8.887a.479.479 0 0 1-.473.407h-1.42a.288.288 0 0 1-.284-.333l1.414-9.05a.288.288 0 0 1 .283-.245h1.59zm-14.11 0c1.152 0 2.02.306 2.509.885.445.527.594 1.28.44 2.237-.343 2.19-1.652 3.294-3.92 3.294h-1.09a.479.479 0 0 0-.472.407l-.395 2.52a.335.335 0 0 1-.33.284h-1.768a.288.288 0 0 1-.283-.333L49.8 7.72a.48.48 0 0 1 .472-.406h3.444zm6.615 4.81c-.939 0-1.698.657-1.848 1.597-.076.461.015.876.259 1.166.246.293.63.448 1.107.448.954 0 1.702-.637 1.86-1.585.074-.459-.026-.876-.279-1.174-.25-.296-.63-.452-1.099-.452zm-7.896-2.887h-.238a.287.287 0 0 0-.283.244l-.365 2.323h.71l.128-.002c.804-.015 1.56-.143 1.726-1.242.07-.437.014-.753-.167-.966-.303-.357-.89-.357-1.511-.357z" fill="#179BD7"/><path d="M16.841 7.518a4.88 4.88 0 0 0-.605-.135 7.646 7.646 0 0 0-1.222-.09h-3.701a.594.594 0 0 0-.583.503l-.788 5.02-.023.147a.674.674 0 0 1 .665-.574h1.386c2.721 0 4.852-1.112 5.475-4.33.018-.096.034-.188.048-.279a3.306 3.306 0 0 0-.652-.262z" fill="#222D65"/></g><defs><clipPath id="a"><path fill="#fff" d="M0 0h74v24H0z"/></clipPath></defs></svg>