<svg width="57" height="24" fill="none" xmlns="http://www.w3.org/2000/svg"><g clip-path="url(#a)"><path d="m7.763 6.584 3.985-1.794 2.869 5.872c.948-1.965 1.89-3.914 2.837-5.873l3.982 1.793c-.123.258-.241.508-.362.757l-2.694 5.617c-.252.525-.621.947-1.18 1.188-.787.339-1.688.126-2.284-.536-.105-.116-.196-.244-.298-.372-.065.087-.127.18-.198.265-.336.407-.756.689-1.296.777-.652.101-1.206-.094-1.685-.525a2.618 2.618 0 0 1-.59-.822C9.9 10.98 8.952 9.027 8.001 7.076l-.24-.492zm1.517.53.035.077a8044.63 8044.63 0 0 0 2.588 5.314c.078.16.181.306.307.435.354.357.845.356 1.2 0 .117-.127.219-.266.302-.416.089-.147.147-.31.23-.46a.207.207 0 0 0 0-.215c-.741-1.509-1.48-3.019-2.217-4.529L11.2 6.252l-1.921.861zm8.728-.862c-.014.024-.026.042-.035.06a2548.79 2548.79 0 0 0-2.687 5.573.191.191 0 0 0 0 .144c.071.163.152.321.23.481.088.187.216.354.375.49a.806.806 0 0 0 1.045.027c.177-.14.317-.319.408-.522l2.29-4.77c.099-.204.195-.41.295-.622l-1.921-.86zM12.643 20.21v-1.2c.012.005.025.007.031.015.314.343.898.343 1.27.124.416-.243.601-.62.606-1.076.006-.514-.203-.925-.695-1.165-.363-.177-.894-.155-1.195.184a.236.236 0 0 1-.034.018v-.241h-.643v3.334c-.046 0-.08.006-.12.006h-2.07c-.723 0-1.272-.511-1.28-1.215a95.713 95.713 0 0 1 0-2.077c.009-.71.551-1.219 1.287-1.219h9.612c.298-.007.59.09.82.274.23.184.383.441.432.726.011.064.017.129.016.194v2.123a1.188 1.188 0 0 1-.362.846 1.27 1.27 0 0 1-.876.348h-6.683l-.116.001zm4.957-2.153c0-.723-.563-1.255-1.327-1.255-.764.001-1.327.534-1.327 1.248 0 .713.563 1.255 1.325 1.25.864-.005 1.34-.627 1.329-1.243zm-6.212-1.021a.684.684 0 0 0-.062-.037 2.28 2.28 0 0 0-1.155-.185c-.19.014-.372.073-.532.173-.402.253-.454.966.086 1.184.16.056.323.1.49.131.151.036.307.058.458.096a.149.149 0 0 1 .084.053.14.14 0 0 1 .03.092.164.164 0 0 1-.025.098.173.173 0 0 1-.078.067.281.281 0 0 1-.108.037 2.413 2.413 0 0 1-.497 0 5.127 5.127 0 0 1-.599-.177l-.241.448.045.03c.03.017.06.035.092.05.3.144.634.213.97.203.251.01.501-.047.723-.163a.717.717 0 0 0 .3-.288.684.684 0 0 0 .086-.4c-.016-.3-.202-.482-.483-.577a3.66 3.66 0 0 0-.41-.095c-.144-.03-.29-.05-.433-.084a.143.143 0 0 1-.084-.045.135.135 0 0 1-.035-.086.166.166 0 0 1 .018-.1.174.174 0 0 1 .073-.071.245.245 0 0 1 .096-.038 1.63 1.63 0 0 1 .364-.007c.205.037.406.1.618.155.065-.142.136-.303.209-.465zm6.967.393v.117c0 .31 0 .627.007.94.011.402.241.698.604.776.163.03.33.038.495.023.226-.018.443-.1.623-.233l-.235-.48a2.951 2.951 0 0 1-.33.12c-.312.078-.502-.071-.503-.38v-.782c0-.03 0-.06.006-.098h.88v-.563h-.89v-.7h-.66v.704h-.473v.562l.476-.006z" fill="#1F263A"/><path d="M13.24 18.708c-.37 0-.633-.271-.635-.654-.002-.383.269-.665.638-.664.37.002.633.276.637.657.005.382-.266.661-.64.661zM16.266 18.708a.63.63 0 0 1-.643-.684.638.638 0 0 1 .652-.634.676.676 0 0 1 .48.197.63.63 0 0 1 .18.471.643.643 0 0 1-.67.65z" fill="#1F263A"/><path d="M37.591 20.209h-4.49c-.482 0-.797-.367-.628-.756.591-1.366 1.213-2.72 1.826-4.083h1.097l2.195 4.839zM34.914 16.5l-.113-.012c-.331.826-.673 1.647-.992 2.478-.085.219.055.374.289.379.632.012 1.266 0 1.96 0-.394-.985-.77-1.915-1.144-2.845zM49.894 19.4v.793c-.142 0-.288.017-.433.017h-2.909c-.331 0-.62-.06-.752-.375-.144-.344.055-.583.323-.785.543-.407 1.088-.813 1.669-1.247-.604-.456-1.169-.897-1.751-1.313-.262-.188-.417-.397-.312-.709.105-.312.346-.442.702-.437 1.024.014 2.049 0 3.075 0 .107 0 .213.017.336.027v.754h-2.406l-.041.086 1.76 1.346v.461l-1.906 1.377 2.645.005zM45.234 20.197h-1.137l-.51-1.033h-2.155l-.472 1.045h-1.122c.701-1.628 1.39-3.223 2.084-4.829h1.194l2.118 4.817zm-1.96-1.907c-.248-.621-.468-1.168-.69-1.72l-.1.023-.75 1.697h1.54zM39.182 20.191h-.935v-4.818h.935v4.818z" fill="#325784"/><path d="M46.511 4.992H36.427v8.309h10.084V4.992z" fill="#F0E25E"/><path d="m41.489 5.768-6.352 8.62h12.7l-6.349-8.62zm-4.06 7.53 4.06-5.532.248.376-3.777 5.156" fill="#325784"/><path d="M45.425 13.3h-7.58l-.417.444h7.997v-.443z" fill="url(#b)" fill-opacity=".2"/><path fill="#1F263A" fill-opacity=".3" d="M27.084 6.298h.236v11.403h-.236z"/></g><defs><linearGradient id="b" x1="41.426" y1="13.301" x2="41.426" y2="13.744" gradientUnits="userSpaceOnUse"><stop stop-opacity="0"/><stop offset=".177" stop-opacity=".88"/><stop offset=".604" stop-opacity=".92"/><stop offset="1" stop-opacity="0"/></linearGradient><clipPath id="a"><path fill="#fff" d="M0 0h57v24H0z"/></clipPath></defs></svg>