<svg width="57" height="24" fill="none" xmlns="http://www.w3.org/2000/svg"><g clip-path="url(#a)"><path d="M15.563 10.196c0 .713-.58 1.434-1.686 1.434-.636 0-1.309-.392-1.7-.789a37.37 37.37 0 0 1 0-1.452c.349-.342.857-.726 1.714-.726.81 0 1.672.402 1.672 1.533zm-1.63-2.245c-.828 0-1.294.253-1.751.573v-1.71a.297.297 0 0 0-.301-.288h-.537v4.852l-.08.843h.494c.222 0 .273-.145.302-.275l.07-.257c.504.387.956.653 1.884.653 1.756 0 2.392-1.293 2.392-2.16-.005-.833-.523-2.23-2.472-2.23zm3.836 1.766c.207-.662.735-1.01 1.522-1.01 1.146 0 1.476.707 1.566 1.01h-3.088zm1.466-1.737c-1.367 0-2.362.933-2.362 2.219 0 1.31 1.028 2.255 2.442 2.255 1.367 0 1.834-.487 2.244-.914l.156-.16-.674-.474-.08.101c-.25.304-.595.722-1.585.722-1.004 0-1.546-.639-1.65-1.286h4.05l.005-.161c0-.67-.203-1.213-.608-1.613-.448-.445-1.137-.689-1.938-.689zm5.035 3.65c-.632 0-.755-.204-.755-.551V8.777h1.657v-.425a.299.299 0 0 0-.304-.288H23.51v-1.03c0-.158-.138-.284-.304-.284h-.542v1.318h-.883v.713h.888v2.36c0 .33 0 1.201 1.463 1.201.27 0 .598-.045 1.069-.112l.085-.014v-.727l-.175.032c-.323.063-.556.108-.841.108zm3.886-1.84c-.707-.082-1.32-.151-1.32-.523 0-.487.688-.56 1.097-.56.707 0 1.248.229 1.618.688l.067.083.584-.515-.052-.069c-.167-.225-.67-.914-2.208-.914-.94 0-1.946.35-1.946 1.323 0 .997 1.096 1.126 2.065 1.24.75.088 1.4.166 1.4.598 0 .436-.65.588-1.205.588-.76 0-1.368-.271-1.81-.813l-.066-.083-.626.556.061.073c.599.675 1.358.992 2.388.992 1.339 0 2.108-.496 2.108-1.36-.005-1.056-1.149-1.189-2.155-1.304zm4.908 0c-.708-.082-1.32-.151-1.32-.523 0-.487.688-.56 1.096-.56.708 0 1.249.229 1.62.688l.066.083.584-.515-.053-.069c-.166-.225-.669-.914-2.207-.914-.94 0-1.946.35-1.946 1.323 0 .997 1.096 1.126 2.065 1.24.75.088 1.4.166 1.4.598 0 .436-.65.588-1.206.588-.76 0-1.367-.271-1.808-.813l-.067-.083-.626.556.061.073c.598.675 1.358.992 2.388.992 1.339 0 2.108-.496 2.108-1.36-.01-1.056-1.149-1.189-2.155-1.304zm6.681.432c0 .928-.633 1.507-1.658 1.507-1.016 0-1.669-.593-1.669-1.507 0-.73.524-1.516 1.669-1.516 1.144 0 1.658.758 1.658 1.516zM38.087 7.98c-1.46 0-2.518.91-2.518 2.164 0 1.424.963 2.31 2.517 2.31 1.55 0 2.508-.886 2.508-2.31 0-1.254-1.053-2.164-2.508-2.164zm5.59 0c-.58 0-1.12.198-1.653.604v-.189a.302.302 0 0 0-.304-.295h-.542v4.238h.846V9.459c.285-.29.86-.755 1.577-.755.366 0 .637.087.813.262.166.166.247.41.242.733v2.643h.846V9.58c-.005-1.391-1.145-1.599-1.825-1.599z" fill="#F60"/><path d="M44.34 15.916h-1.123v1.452h-1.198v-3.894h1.198v1.48h1.123v-1.48h1.203v3.894H44.34v-1.452zM39.355 16.055c0 .178.046.316.139.412a.497.497 0 0 0 .368.14c.123 0 .219-.03.288-.09.073-.06.11-.14.11-.245a.277.277 0 0 0-.15-.25 2.606 2.606 0 0 0-.461-.217c-.184-.07-.363-.14-.536-.211a2.137 2.137 0 0 1-.449-.25 1.154 1.154 0 0 1-.305-.345.992.992 0 0 1-.115-.501c0-.2.044-.371.132-.512.092-.145.213-.261.363-.35.15-.093.319-.16.507-.2.192-.045.39-.067.593-.067.296 0 .543.037.743.11.2.075.36.173.484.296.122.118.21.254.265.406.053.152.08.304.08.456h-1.198c0-.323-.132-.484-.397-.484-.1 0-.186.024-.26.072-.072.049-.109.126-.109.234a.3.3 0 0 0 .139.25c.092.067.23.132.414.195.173.06.346.122.519.19.176.066.334.147.472.244.142.096.255.215.34.356a.916.916 0 0 1 .132.506c0 .2-.038.38-.115.54-.077.16-.186.293-.328.4-.143.108-.315.19-.519.245-.203.06-.432.089-.685.089-.253 0-.482-.032-.685-.095a1.546 1.546 0 0 1-.524-.272 1.246 1.246 0 0 1-.334-.44 1.533 1.533 0 0 1-.116-.612h1.198zM36.737 17.368l-.138-.45h-1.353l-.138.45h-1.296l1.486-3.894h1.255l1.52 3.894h-1.336zm-.812-2.726-.426 1.436h.853l-.426-1.436zM33.871 15.833a1.973 1.973 0 0 1-.213.634c-.107.2-.251.375-.432.523a2.15 2.15 0 0 1-.639.356 2.537 2.537 0 0 1-.835.128c-.345 0-.656-.056-.933-.167a2.056 2.056 0 0 1-.691-.45 1.956 1.956 0 0 1-.432-.657 2.07 2.07 0 0 1-.15-.779c0-.27.048-.528.144-.773.1-.248.244-.467.432-.656.188-.19.415-.34.68-.45.269-.116.574-.173.916-.173.326 0 .616.044.869.133.253.09.468.211.645.367a1.9 1.9 0 0 1 .628 1.207h-1.256a.806.806 0 0 0-.265-.467c-.142-.126-.337-.189-.587-.189-.161 0-.303.028-.426.083a.907.907 0 0 0-.49.54 1.119 1.119 0 0 0-.063.378c0 .141.023.273.07.395a.933.933 0 0 0 .195.317c.088.09.194.16.317.212.122.052.263.078.42.078a.866.866 0 0 0 .553-.173.74.74 0 0 0 .276-.417h1.267z" fill="#00075B"/></g><defs><clipPath id="a"><path fill="#fff" d="M0 0h57v24H0z"/></clipPath></defs></svg>